<?xml version="1.0" encoding="utf-8"?>
<!-- Generated by IcoMoon.io -->
<!DOCTYPE svg PUBLIC "-//W3C//DTD SVG 1.1//EN" "http://www.w3.org/Graphics/SVG/1.1/DTD/svg11.dtd">
<svg version="1.1" xmlns="http://www.w3.org/2000/svg" xmlns:xlink="http://www.w3.org/1999/xlink" width="24" height="24" viewBox="0 0 24 24">
<path fill="#8a49eb" d="M9.877 14.577l11.234-7.546c0 0 0.292-0.155-0.114-0.368-0.408-0.213-0.604-0.29-0.604-0.29l-10.845 7.36-8.271-4.553c0 0-0.858-2.113-0.695-2.7 0 0-0.43-0.283-0.43 0.202 0 0.484-0.019 2.344 1.144 2.983 1.162 0.641 8.581 4.912 8.581 4.912z"></path>
<path fill="#e2e3e4" d="M0.522 6.457c0 0-0.206 1.674 0.646 2.71l8.626 4.817 10.822-7.233c0 0-0.64-1.223-0.289-2.536l-11.114 6.82-8.692-4.579z"></path>
<path fill="#c7c7c7" d="M9.766 14.004c-0.978-1.409-0.352-2.999-0.346-3.014l0.062 0.025c-0.007 0.015-0.618 1.572 0.338 2.952l-0.055 0.038z"></path>
<path fill="#8a49eb" d="M9.406 11.066l11.687-7.328c0 0 0.232-0.174-0.172-0.349-0.409-0.173-9.030-3.389-9.030-3.389l-11.696 6.184z"></path>
<path fill="#4c02ba" d="M0.754 6.566c0 0-0.494-0.358-0.484 0.251 0.011 0.66 0.175 2.228 1.065 2.732 0.891 0.502 8.252 4.627 8.252 4.627s0.388 0.155 0.29 0.398l-8.639-4.805c0 0-0.794-0.443-1.075-1.974 0 0-0.572-2.053 0.427-1.568s8.572 4.446 8.572 4.446 0.347 0.124 0.29 0.329c-0.058 0.203-0.388-0.059-0.388-0.059l-8.31-4.377z"></path>
<path fill="#fff" d="M22.75 13.679v9.083h-11.21v-13.415h6.877v4.333z"></path>
<path fill="#284b87" d="M20.234 8.11h-9.932v15.89h13.686v-11.545h0.012l-3.766-4.346zM22.099 12.445h-2.443l-0.023-2.918 2.466 2.918zM22.75 13.679v9.081h-11.21v-13.412h6.877v4.333l4.332-0.002z"></path>
<path fill="#284b87" d="M22.75 13.679v-0.001l-4.332 0.003z"></path>
<path fill="#fff" d="M22.099 12.445h-2.443l-0.023-2.918z"></path>
</svg>
