<?xml version="1.0" encoding="utf-8"?>
<!-- Generated by IcoMoon.io -->
<!DOCTYPE svg PUBLIC "-//W3C//DTD SVG 1.1//EN" "http://www.w3.org/Graphics/SVG/1.1/DTD/svg11.dtd">
<svg version="1.1" xmlns="http://www.w3.org/2000/svg" xmlns:xlink="http://www.w3.org/1999/xlink" width="24" height="24" viewBox="0 0 24 24">
<path fill="#fff" d="M16.468 6.757v15.725h-14.972v-20.962h9.731v5.24z"></path>
<path fill="#808080" d="M13.427 0.022h-13.427v23.956h17.965v-18.702h0.015l-4.553-5.255zM15.679 5.263h-2.954l-0.027-3.529 2.981 3.529zM16.468 6.757v15.725h-14.972v-20.962h9.731v5.24l5.24-0.002z"></path>
<path fill="#808080" d="M16.468 6.757v-0.001l-5.24 0.004z"></path>
<path fill="#fff" d="M15.679 5.263h-2.953l-0.028-3.529z"></path>
<path fill="#000" d="M24 15.971c0 4.435-3.595 8.029-8.029 8.029s-8.030-3.595-8.030-8.029c0-4.435 3.595-8.030 8.030-8.030s8.029 3.595 8.029 8.030z"></path>
<path fill="#fff" d="M12.45 9.511c-1.258 0.687-2.293 1.732-2.969 2.996l2.656 1.571c0.394-0.799 1.031-1.456 1.815-1.877l-1.502-2.69z"></path>
<path fill="#fff" d="M19.45 22.399c1.257-0.688 2.293-1.732 2.969-2.995l-2.657-1.571c-0.394 0.799-1.031 1.456-1.816 1.876l1.504 2.691z"></path>
<path fill="#fff" d="M15.971 12.66c-1.829 0-3.31 1.482-3.31 3.31s1.483 3.311 3.311 3.311c1.829 0 3.311-1.483 3.311-3.311 0-1.829-1.482-3.311-3.311-3.311zM15.971 17.268c-0.717 0-1.298-0.581-1.298-1.297s0.581-1.298 1.298-1.298 1.298 0.581 1.298 1.298c0 0.716-0.581 1.297-1.298 1.297z"></path>
<path fill="#f00" d="M0 8.154l6.463 6.241 6.937-14.395-8.191 10.095z"></path>
</svg>
