<?xml version="1.0" encoding="utf-8"?>
<!-- Generated by IcoMoon.io -->
<!DOCTYPE svg PUBLIC "-//W3C//DTD SVG 1.1//EN" "http://www.w3.org/Graphics/SVG/1.1/DTD/svg11.dtd">
<svg version="1.1" xmlns="http://www.w3.org/2000/svg" xmlns:xlink="http://www.w3.org/1999/xlink" width="24" height="24" viewBox="0 0 24 24">
<path fill="#edc87e" d="M23.288 4.059h-3.314v-0.379c0-0.897-0.728-1.624-1.625-1.624h-7.123l-2.128-2.056h-7.474c-0.897 0-1.624 0.728-1.624 1.624v13.717c0 0.895 0.727 1.623 1.624 1.623l16.726 0.005c0.687 0 1.271-0.428 1.509-1.028 0-0.001 0-0.001 0-0.001l4.042-10.906c0.199-0.538-0.075-0.974-0.613-0.974zM1.886 0.985h6.959l2.065 1.959h7.017c0.578 0 1.045 0.468 1.045 1.046v0.070h-13.046c-0.538 0-1.136 0.436-1.336 0.974l-3.646 9.839v-12.947c0-0.52 0.421-0.941 0.941-0.941z"></path>
<path fill="#fff" d="M1.886 0.985h6.959l2.065 1.959h7.017c0.578 0 1.045 0.468 1.045 1.046v0.070h-13.046c-0.538 0-1.136 0.436-1.336 0.974l-3.646 9.839v-12.947c0-0.52 0.421-0.941 0.941-0.941z"></path>
<path fill="#fff" d="M22.75 13.679v9.083h-11.21v-13.415h6.877v4.333z"></path>
<path fill="#808080" d="M20.234 8.11h-9.932v15.89h13.687v-11.545h0.011l-3.766-4.346zM22.099 12.445h-2.443l-0.023-2.918 2.466 2.918zM22.75 13.679v9.081h-11.21v-13.412h6.877v4.333l4.333-0.002z"></path>
<path fill="#808080" d="M22.75 13.679v-0.001l-4.332 0.003z"></path>
<path fill="#fff" d="M22.099 12.445h-2.443l-0.023-2.918z"></path>
</svg>
