<?xml version="1.0" encoding="utf-8"?>
<!-- Generated by IcoMoon.io -->
<!DOCTYPE svg PUBLIC "-//W3C//DTD SVG 1.1//EN" "http://www.w3.org/Graphics/SVG/1.1/DTD/svg11.dtd">
<svg version="1.1" xmlns="http://www.w3.org/2000/svg" xmlns:xlink="http://www.w3.org/1999/xlink" width="24" height="24" viewBox="0 0 24 24">
<path fill="#fff" d="M16.468 16.16v-9.404l-5.24 0.002v-5.239h-9.731v20.962h14.972v-3.030c-0.952-0.779-0.927-2.438 0-3.291z"></path>
<path fill="#808080" d="M17.738 19.873c-0.534 0-0.954-0.163-1.27-0.422v3.030h-14.972v-20.962h9.731v5.24l5.24-0.002v9.404c0.349-0.321 0.817-0.533 1.419-0.533 0.028 0 0.051 0.007 0.078 0.008v-10.359h0.015l-4.553-5.255h-13.427v23.957h17.965v-4.127c-0.075 0.008-0.146 0.023-0.226 0.023zM15.679 5.263h-2.954l-0.027-3.529 2.981 3.529z"></path>
<path fill="#808080" d="M16.468 6.757v-0.001l-5.24 0.004z"></path>
<path fill="#fff" d="M15.679 5.263h-2.953l-0.028-3.529z"></path>
<path fill="#284b87" d="M6.026 24v-1.843c0 0 0.039-1.92 2.611-2.649s4.223-0.806 4.146-2.381c0 0-1.112-0.844-1.344-2.841 0 0-1.881-1.88-0.576-2.188 0 0-0.691-2.917 0.691-4.107s4.339-1.421 5.376-0.154c0 0 2.801 0.192 2.111 4.223 0 0 1.228 0.076-0.538 2.111 0 0-0.077 1.766-1.229 2.88 0 0-0.692 1.381 2.687 1.958 3.378 0.575 4.141 2.418 4.026 3.724v1.267h-17.961z"></path>
<path fill="#f00" d="M0 7.406l5.87 5.669 6.3-13.076-7.439 9.169z"></path>
</svg>
