<?xml version="1.0" encoding="utf-8"?>
<!-- Generated by IcoMoon.io -->
<!DOCTYPE svg PUBLIC "-//W3C//DTD SVG 1.1//EN" "http://www.w3.org/Graphics/SVG/1.1/DTD/svg11.dtd">
<svg version="1.1" xmlns="http://www.w3.org/2000/svg" xmlns:xlink="http://www.w3.org/1999/xlink" width="24" height="24" viewBox="0 0 24 24">
<path fill="#fff" d="M21.701 5.263h-2.954l-0.028-3.529z"></path>
<path fill="#fff" d="M22.488 6.757v15.725h-14.971v-20.962h9.732v5.24l5.239-0.002z"></path>
<path fill="#284b87" d="M19.447 0.022h-13.427v23.956h17.965v-18.702h0.015l-4.553-5.255zM21.701 5.263h-2.954l-0.028-3.529 2.981 3.529zM22.488 6.757v15.725h-14.971v-20.962h9.732v5.24l5.239-0.002z"></path>
<path fill="#284b87" d="M22.488 6.757v-0.001l-5.239 0.004z"></path>
<path fill="#808080" d="M20.805 10.884c0 0.346-0.335 0.627-0.75 0.627h-10.090c-0.414 0-0.75-0.281-0.75-0.627v-0.584c0-0.346 0.336-0.627 0.75-0.627h10.090c0.415 0 0.75 0.28 0.75 0.627v0.584z"></path>
<path fill="#808080" d="M20.805 14.441c0 0.347-0.335 0.629-0.75 0.629h-10.090c-0.414 0-0.75-0.281-0.75-0.629v-0.583c0-0.346 0.336-0.627 0.75-0.627h10.090c0.415 0 0.75 0.281 0.75 0.627v0.583z"></path>
<path fill="#808080" d="M20.805 17.998c0 0.346-0.335 0.627-0.75 0.627h-10.090c-0.414 0-0.75-0.281-0.75-0.627v-0.584c0-0.346 0.336-0.627 0.75-0.627h10.090c0.415 0 0.75 0.281 0.75 0.627v0.584z"></path>
<path fill="#f00" d="M0 17.203l7.038 6.797 7.553-15.677-8.919 10.994z"></path>
</svg>
