<?xml version="1.0" encoding="utf-8"?>
<!-- Generated by IcoMoon.io -->
<!DOCTYPE svg PUBLIC "-//W3C//DTD SVG 1.1//EN" "http://www.w3.org/Graphics/SVG/1.1/DTD/svg11.dtd">
<svg version="1.1" xmlns="http://www.w3.org/2000/svg" xmlns:xlink="http://www.w3.org/1999/xlink" width="24" height="24" viewBox="0 0 24 24">
<path fill="#fff" d="M16.468 6.757v15.725h-14.972v-20.962h9.731v5.24z"></path>
<path fill="#808080" d="M13.427 0.022h-13.427v23.956h17.965v-18.702h0.015l-4.553-5.255zM15.679 5.263h-2.954l-0.027-3.529 2.981 3.529zM16.468 6.757v15.725h-14.972v-20.962h9.731v5.24l5.24-0.002z"></path>
<path fill="#284b87" d="M16.468 6.757v-0.001l-5.24 0.004z"></path>
<path fill="#fff" d="M15.679 5.263h-2.953l-0.028-3.529z"></path>
<path fill="#284b87" d="M24 24h-15.131v-15.131h15.131v15.131zM10.594 22.274h11.681v-11.681h-11.681v11.681z"></path>
<path fill="#fff" d="M10.594 10.594h11.681v11.681h-11.681v-11.681z"></path>
<path fill="#000" d="M15.436 21.298c0 0-4.723-4.151-0.381-7.223l-1.822-1.886h6.735v6.798l-2.266-2.329c0.001 0.001-3.219-0.106-2.266 4.639z"></path>
</svg>
