<?xml version="1.0" encoding="utf-8"?>
<!-- Generated by IcoMoon.io -->
<!DOCTYPE svg PUBLIC "-//W3C//DTD SVG 1.1//EN" "http://www.w3.org/Graphics/SVG/1.1/DTD/svg11.dtd">
<svg version="1.1" xmlns="http://www.w3.org/2000/svg" xmlns:xlink="http://www.w3.org/1999/xlink" width="24" height="24" viewBox="0 0 24 24">
<path fill="#f00" d="M9.399 16.735l7.038 6.797 7.552-15.677-8.918 10.994z"></path>
<path fill="#edc87e" d="M17.904 14.248c-0.034 0.383-0.372 0.69-0.752 0.69h-16.090c-0.381 0-0.661-0.307-0.626-0.69l0.965-10.6c0.034-0.381 0.372-0.69 0.752-0.69 4.023 0 16.091 0 16.091 0 0.379 0 0.662 0.309 0.625 0.69l-0.967 10.6z"></path>
<path fill="#edc87e" d="M0.818 3.907c0.088-0.905 0.893-1.638 1.797-1.638h15.141v-0.317c0-0.382-0.307-0.689-0.691-0.689h-7.384v-0.575c0.001-0.381-0.308-0.689-0.688-0.689h-8.303c-0.38 0-0.689 0.309-0.689 0.689v11.604l0.818-8.386z"></path>
</svg>
