<?xml version="1.0" encoding="utf-8"?>
<!-- Generated by IcoMoon.io -->
<!DOCTYPE svg PUBLIC "-//W3C//DTD SVG 1.1//EN" "http://www.w3.org/Graphics/SVG/1.1/DTD/svg11.dtd">
<svg version="1.1" xmlns="http://www.w3.org/2000/svg" xmlns:xlink="http://www.w3.org/1999/xlink" width="24" height="24" viewBox="0 0 24 24">
<path fill="#f00" d="M9.409 17.203l7.038 6.797 7.553-15.677-8.918 10.994z"></path>
<path fill="#8a49eb" d="M10.79 15.922l12.274-8.24c0 0 0.316-0.17-0.128-0.402-0.446-0.233-0.659-0.317-0.659-0.317l-11.848 8.041-9.035-4.975c0 0-0.937-2.308-0.758-2.95 0 0-0.469-0.308-0.469 0.221s-0.020 2.561 1.249 3.258c1.268 0.7 9.373 5.365 9.373 5.365z"></path>
<path fill="#e2e3e4" d="M0.57 7.053c0 0-0.227 1.829 0.705 2.961l9.422 5.263 11.824-7.901c0 0-0.7-1.336-0.317-2.77l-12.141 7.45-9.493-5.003z"></path>
<path fill="#c7c7c7" d="M10.668 15.297c-1.068-1.54-0.385-3.276-0.377-3.293l0.068 0.028c-0.008 0.016-0.674 1.717 0.37 3.223l-0.060 0.041z"></path>
<path fill="#8a49eb" d="M10.276 12.088l12.766-8.005c0 0 0.253-0.19-0.189-0.38-0.445-0.19-9.863-3.704-9.863-3.704l-12.777 6.755z"></path>
<path fill="#4c02ba" d="M0.824 7.172c0 0-0.539-0.391-0.528 0.275 0.011 0.721 0.191 2.434 1.163 2.983s9.014 5.056 9.014 5.056 0.423 0.167 0.317 0.434l-9.437-5.249c0 0-0.868-0.484-1.175-2.156 0 0-0.625-2.242 0.466-1.714 1.091 0.529 9.364 4.856 9.364 4.856s0.38 0.136 0.317 0.359c-0.063 0.225-0.423-0.063-0.423-0.063l-9.078-4.782z"></path>
</svg>
