<?xml version="1.0" encoding="utf-8"?>
<!-- Generated by IcoMoon.io -->
<!DOCTYPE svg PUBLIC "-//W3C//DTD SVG 1.1//EN" "http://www.w3.org/Graphics/SVG/1.1/DTD/svg11.dtd">
<svg version="1.1" xmlns="http://www.w3.org/2000/svg" xmlns:xlink="http://www.w3.org/1999/xlink" width="24" height="24" viewBox="0 0 24 24">
<path fill="#8a49eb" d="M1.677 0.096c0 0-0.623-0.224-0.623 0.549s-0.973 10.456-0.973 10.456-0.159 0.458 0.608 0.659c0.764 0.2 8.5 2.379 8.5 2.379s1.514-0.867 3.13 0.016l8.882-2.547c0 0 0.381 0.033 0.331-0.581s-0.981-10.597-0.981-10.597-0.116-0.482-0.649-0.298l-9.098 1.795-9.127-1.831z"></path>
<path fill="#3c0f80" d="M12.311 14.228l-0.025-0.014c-0.47-0.259-0.98-0.39-1.514-0.39-0.89 0-1.543 0.365-1.549 0.374l-0.024 0.014-0.027-0.008c-0.077-0.022-7.745-2.181-8.501-2.378-0.309-0.081-0.516-0.214-0.612-0.395-0.099-0.181-0.044-0.344-0.043-0.35 0.007-0.082 0.97-9.674 0.97-10.435 0.001-0.563 0.313-0.646 0.501-0.646 0.117 0 0.21 0.033 0.213 0.035l9.104 1.825 9.088-1.792c0.078-0.027 0.161-0.043 0.238-0.043 0.312 0 0.457 0.257 0.49 0.392 0.011 0.109 0.933 10 0.983 10.609 0.019 0.242-0.022 0.424-0.128 0.536-0.099 0.109-0.227 0.118-0.263 0.118l-8.901 2.549zM10.771 13.691c0.547 0 1.070 0.134 1.556 0.392l8.882-2.541c0.026 0 0.104-0.005 0.168-0.073 0.078-0.083 0.11-0.233 0.092-0.437-0.048-0.607-0.973-10.497-0.982-10.596-0.003-0.002-0.073-0.28-0.357-0.28-0.062 0-0.128 0.013-0.202 0.038l-9.124 1.802-9.139-1.833c-0.010-0.003-0.085-0.028-0.177-0.028-0.244 0-0.366 0.172-0.366 0.512 0 0.767-0.935 10.067-0.975 10.463-0.005 0.018-0.040 0.131 0.032 0.26 0.077 0.143 0.26 0.257 0.527 0.326 0.734 0.191 7.978 2.232 8.476 2.372 0.131-0.074 0.753-0.379 1.589-0.379z"></path>
<path fill="#e2e3e4" d="M2.224 1.568l1.129-1.417 7.434 2.604 7.466-2.591 1.094 1.331 0.748 9.184-7.86 2.386c0 0-1.341-2.095-2.88 0.016l-7.847-2.357 0.716-9.156z"></path>
<path fill="#fdfeff" d="M3.353 0.152l-0.595 8.866c0 0 5.653-0.291 8.060 3.123 0 0 2.088-3.223 7.999-3.123l-0.562-8.853c0 0-4.222-0.39-7.467 2.59 0 0.001-2.27-2.588-7.435-2.603z"></path>
<path fill="#fff" d="M22.75 13.679v9.083h-11.21v-13.415h6.877v4.333z"></path>
<path fill="#284b87" d="M20.234 8.11h-9.932v15.89h13.686v-11.545h0.012l-3.766-4.346zM22.099 12.445h-2.443l-0.023-2.918 2.466 2.918zM22.75 13.679v9.081h-11.21v-13.412h6.877v4.333l4.332-0.002z"></path>
<path fill="#284b87" d="M22.75 13.679v-0.001l-4.332 0.003z"></path>
<path fill="#fff" d="M22.099 12.445h-2.443l-0.023-2.918z"></path>
</svg>
