<?xml version="1.0" encoding="utf-8"?>
<!-- Generated by IcoMoon.io -->
<!DOCTYPE svg PUBLIC "-//W3C//DTD SVG 1.1//EN" "http://www.w3.org/Graphics/SVG/1.1/DTD/svg11.dtd">
<svg version="1.1" xmlns="http://www.w3.org/2000/svg" xmlns:xlink="http://www.w3.org/1999/xlink" width="24" height="24" viewBox="0 0 24 24">
<path fill="#fff" d="M16.468 6.757v15.725h-14.972v-20.962h9.731v5.24z"></path>
<path fill="#808080" d="M13.427 0.022h-13.427v23.956h17.965v-18.702h0.015l-4.553-5.255zM15.679 5.263h-2.954l-0.027-3.529 2.981 3.529zM16.468 6.757v15.725h-14.972v-20.962h9.731v5.24l5.24-0.002z"></path>
<path fill="#808080" d="M16.468 6.757v-0.001l-5.24 0.004z"></path>
<path fill="#fff" d="M15.679 5.263h-2.953l-0.028-3.529z"></path>
<path fill="#fff" d="M23.138 16.139c0 3.866-3.134 7-7.001 7s-7-3.134-7-7c0-3.866 3.134-7 7-7s7.001 3.134 7.001 7z"></path>
<path fill="#284b87" d="M16.137 24c-4.336 0-7.862-3.526-7.862-7.861s3.527-7.862 7.862-7.862c4.336-0.002 7.863 3.526 7.863 7.862 0 4.335-3.527 7.861-7.863 7.861zM16.137 10c-3.385 0-6.138 2.754-6.138 6.139s2.753 6.137 6.138 6.137c3.385 0 6.139-2.753 6.139-6.137-0.002-3.385-2.756-6.139-6.139-6.139z"></path>
<path fill="#284b87" d="M15.106 14.663h2.063v5.856h-2.063v-5.856z"></path>
<path fill="#284b87" d="M15.106 11.813h2.063v1.812h-2.063v-1.812z"></path>
</svg>
