<?xml version="1.0" encoding="utf-8"?>
<!-- Generated by IcoMoon.io -->
<!DOCTYPE svg PUBLIC "-//W3C//DTD SVG 1.1//EN" "http://www.w3.org/Graphics/SVG/1.1/DTD/svg11.dtd">
<svg version="1.1" xmlns="http://www.w3.org/2000/svg" xmlns:xlink="http://www.w3.org/1999/xlink" width="24" height="24" viewBox="0 0 24 24">
<path fill="#284bd8" d="M17.768 8.913c0 4.923-3.977 8.913-8.884 8.913s-8.884-3.99-8.884-8.913c0-4.923 3.977-8.913 8.884-8.913s8.884 3.99 8.884 8.913z"></path>
<path fill="#00c336" d="M6.668 17.224c-0.231-0.173-0.050 0.169 0 0zM7.075 0.581c0.568 0.173 1.534-0.21 2.036-0.372-0.77-0.291-1.319 0.22-2.036 0.372v0zM13.328 4.436c0.323 0.423 0.322 1 0.38 1.218 1.081 0.123-0.006-0.835-0.128-1.247-0.024-0.218-0.282-0.105-0.252 0.029v0zM13.255 4.451c0.089 0.267 0.123-0.11 0 0zM12.986 4.942c-0.148 0.803 0.894 0.045 0.265-0.146l-0.124 0.037-0.141 0.109zM7.549 2.169c0.053-0.225-0.465-0.422-0.204-0.627-0.262-0.188-0.265-0.698-0.555-0.413 0.101-0.307-0.795 0.143-0.105-0.188-0.699-0.127-0.905 0.713-0.080 0.6 0.495 0.623-1.29 0.585-0.287 0.855 0.262 0.458 0.533 0.21 0.832 0.105-0.262-0.555 0.045-0.225 0.315-0.188l0.083-0.145zM4.189 6.33v0zM3.715 8.891c0.405-0.5-1.695-0.767-0.512-0.393 0.182 0.113 0.294 0.338 0.512 0.393v0zM15.842 7.889c-0.578-0.23 0.128 0.57 0 0zM17.682 10.049c0.172-1.405-0.074-2.813-0.435-4.167-0.363-0.915-0.82-1.83-1.486-2.566 0.151 0.63-0.089 0.242-0.359-0.012 0.734 0.262-0.826-1.208-1.013-0.5 0.038 0.637-0.495 1.88 0.511 1.68 0.106 0.357 0.239 0.917 0.481 0.287 0.031-0.32-0.578-1.239-0.157-1.189 0 0.473 0.443 0.9 0.673 0.892-0.352 0.18 0.106 0.322-0.164 0.518 0.053 0.66-0.953 0.188-0.938-0.315 0.18 0.682-0.457 1.102-1.103 1.313 0.841 0.457 0.209 1.035-0.404 0.72-0.541 0.795 0.69 1.68 1.102 0.683 0.294-1.020 1.351-0.247 1.546 0.435 0.456-0.262-0.99-1.402-0.081-0.885 0.276 0.293 0.472 1.26 0.697 1.125-0.188-0.457 0.456-0.637 0.195-0.082 0.247 0.36 1.058 0.69 0.383 1.178-0.383-0.113-0.878-0.405-1.058-0.075-0.69-0.375-0.577-1.485-1.567-1.103-0.765-0.045-1.351 0.27-1.703 0.96-0.743 0.383-0.893 1.215-0.999 1.973 0 0.637 0.54 1.703 1.374 1.477 0.818-0.255 1.581 0.391 0.922 1.125 0.246 0.997-0.947 1.508-1.177 2.386-0.286 0.255-0.976 1.163-0.083 0.802 0.916-0.42 1.748-1.042 2.468-1.739 0.63-0.893 1.5-1.688 1.868-2.722-0.151-0.758 0.149-1.853 0.021-2.633 0.347 0.652-0.067 1.672 0.128 2.175 0.263-0.518 0.337-1.125 0.396-1.703l-0.037-0.034zM17.433 7.618c-0.52 0.090-0.95-0.521-0.517-0.81 0.154 0.309 0.53 0.435 0.517 0.81zM15.315 14.585c-0.24 0.401-0.424 0.413 0 0zM15.504 13.916c-0.24 0.607-0.318 0.315 0 0zM16.005 13.218c-0.115 0.263-0.112-0.098 0 0zM15.311 7.428c-0.302-0.345-0.047 0.6 0 0zM12.307 3.033c-0.449-0.322-1.309-0.308-0.677 0.18 0.171 0.045 0.7 0.097 0.677-0.188v0.007zM13.094 1.458c0.195-0.18-0.803-0.72-0.36-0.24 0.117 0.083 0.24 0.157 0.36 0.24zM7.542 4.931c-0.478-0.068-0.021-0.585-0.289-0.383-0.725 0.338-0.102 0.667 0.319 0.69 0.055-0.45-0.080 0.18-0.030-0.315v0.008zM8.795 13.173c-0.309-0.63-1.361-0.742-1.729-0.945-0.058-0.315-0.615 0.203-0.161-0.346 0.026-0.742-1.237-0.697-1.509-1.364-0.382-0.256-1.245-0.21-1.23-0.316-0.105-0.554-0.757 0.563-1.192 0.046-0.397-0.172-0.015-1.207-0.75-1.057 0.398-0.705 0.075-0.93-0.472-0.45-0.563-0.428-0.21-1.973 0.66-1.53 0.518-0.81 0.945 1.53 0.885 0.225 0.008-0.728 1.065-0.788 0.922-1.38 0.098 0.248 0.525-0.495 0.892-0.465 0.075-0.322 1.313-0.525 0.63-0.165 0.307 0.173 1.275-0.42 0.487-0.21-0.345-0.188 0.075-0.862-0.555-0.51-0.705 0.188 0.848-0.405 1.125-0.18 0.435 0.18 0.855-0.45 0.33-0.502 0.322 0.007-0.36-0.465-0.217-0.848-0.135-0.3-0.75 0.36-0.585-0.27-0.068-0.825-1.072-0.21-1.028 0.397-0.308 0.217-0.428 0.592-0.72 0.698-0.218-0.323 0.18-0.6-0.345-0.713-0.615-0.87 0.817-1.26 1.425-1.44 0.42 0.037 0.795-0.653 0.143-0.315-0.593 0.21 0.397-0.772 0.465-0.698-0.652 0.075-1.012 1.013-1.702 0.57-0.532-0.345-1.44 0.84-2.025 1.253-0.907 0.967-1.672 2.115-1.95 3.435 0.105 0.442-0.12 1.538 0.113 1.605-0.060-0.337 0-1.41 0.045-0.533 0.12 0.832 0.188 1.89 1.17 2.077 0.495 0.269 0.773 1.402 1.372 1.103 0.555 0.631-0.622 1.65 0.195 2.25 0.375 0.803 1.44 1.226 1.35 2.25 0.18 0.963 0.608 2.117 1.612 2.463-0.57-0.322-0.615-1.117-0.15-1.358-0.113-0.329 0.559-0.104 0.574-0.592 0.368-0.698 1.253-0.563 1.388-1.44 0.082-0.328 0.592-0.487 0.58-0.789l-0.043 0.043zM3.197 3.469c-0.027 0.57-0.437 0.57 0 0zM4.086 5.411c-0.311 0.247-0.708-0.067-0.122-0.015l0.122 0.015zM4.118 5.261c0.48-0.12 0.353 0.21 0 0zM3.769 4.762c0.714 0.113-0.167 0.789-0.098 0.135-0.277-0.040-0.57 0.863-0.39 0.131 0.033-0.247 0.296-0.135 0.488-0.262v-0.003zM3.332 4.489c0.47-0.397 0.43 0.593 0.045 0.095-0.242 0.135-0.537-0.046-0.045-0.095v0zM3.097 2.321c0.438-0.33 0.697-0.028 0 0zM4.675 13.733c-0.315-0.175 0.060-0.211 0 0zM4.316 9.221c0.84-0.127-1.035-0.375-0.195 0.002 0.030 0.012 0.173 0.089 0.195-0.002zM11.38 2.192c-0.464 0.079-0.555-0.56-0.149-0.102 0.464 0.019-0.601-0.686 0.149-0.416-0.075-0.413-0.293-0.788-0.262-1.024-0.158-0.002-0.9-0.185-0.338-0.16-0.855-0.317-1.815-0.152-2.647 0.124 0.54 0.089-0.442 0.137 0.21 0.25 0.652 0.079 0.18 0.683 0.443 0.843-0.285-0.060 0.285 0.308-0.188 0.435-0.48 0.39 0.232 1.605 0.847 1.072 0.218-0.84 1.207-0.712 1.853-0.975l0.082-0.047zM5.021 9.332c-0.098-0.279-0.315 0.182 0 0zM6.461 4.783c0.135-0.343-0.435-0.041 0 0z"></path>
<path fill="#fff" d="M22.921 13.679v9.083h-10.695v-13.415h6.952v4.333z"></path>
<path fill="#808080" d="M20.747 8.11h-9.591v15.89h12.833v-11.545h0.011l-3.253-4.346zM22.358 12.445h-2.11l-0.020-2.918 2.13 2.918zM22.921 13.679v9.081h-10.695v-13.412h6.953v4.333l3.742-0.002z"></path>
<path fill="#808080" d="M22.921 13.679v-0.001l-3.743 0.003z"></path>
<path fill="#284bd8" d="M19.945 16.813c0 1.45-1.171 2.625-2.616 2.625s-2.616-1.175-2.616-2.625c0-1.45 1.171-2.625 2.616-2.625s2.616 1.175 2.616 2.625z"></path>
<path fill="#00c336" d="M16.675 19.261c-0.067-0.053-0.013 0.050 0 0zM16.797 14.359c0.167 0.051 0.451-0.060 0.599-0.11-0.227-0.086-0.389 0.065-0.599 0.11v0zM18.639 15.494c0.095 0.125 0.095 0.295 0.111 0.359 0.319 0.037-0.002-0.245-0.038-0.366-0.008-0.064-0.083-0.033-0.073 0.007v0zM18.617 15.499c0.026 0.079 0.036-0.032 0 0zM18.538 15.643c-0.043 0.235 0.264 0.014 0.078-0.044l-0.037 0.012-0.041 0.032zM16.937 14.828c0.016-0.066-0.138-0.125-0.060-0.184-0.078-0.055-0.078-0.206-0.163-0.121 0.030-0.091-0.235 0.042-0.032-0.055-0.205-0.039-0.265 0.21-0.023 0.176 0.145 0.183-0.381 0.172-0.084 0.252 0.078 0.134 0.157 0.062 0.244 0.031-0.077-0.164 0.014-0.066 0.093-0.056l0.025-0.043zM15.948 16.052v0 0zM15.808 16.806c0.118-0.147-0.5-0.226-0.151-0.116 0.053 0.033 0.086 0.101 0.151 0.116v0zM19.379 16.512c-0.171-0.068 0.038 0.167 0 0zM19.922 17.147c0.050-0.415-0.022-0.828-0.129-1.228-0.107-0.269-0.242-0.539-0.438-0.757 0.045 0.185-0.026 0.073-0.106-0.004 0.217 0.078-0.242-0.355-0.298-0.146 0.012 0.188-0.145 0.553 0.15 0.494 0.032 0.105 0.071 0.269 0.141 0.084 0.010-0.094-0.17-0.364-0.047-0.35 0 0.139 0.131 0.265 0.2 0.263-0.104 0.053 0.031 0.095-0.048 0.152 0.016 0.196-0.281 0.056-0.276-0.093 0.053 0.202-0.135 0.325-0.325 0.387 0.248 0.136 0.062 0.305-0.119 0.212-0.16 0.235 0.203 0.495 0.325 0.203 0.086-0.301 0.398-0.073 0.455 0.128 0.136-0.078-0.291-0.414-0.023-0.262 0.081 0.085 0.139 0.37 0.205 0.331-0.056-0.136 0.134-0.188 0.056-0.025 0.074 0.106 0.312 0.203 0.112 0.346-0.112-0.032-0.259-0.119-0.311-0.022-0.203-0.11-0.17-0.436-0.462-0.325-0.224-0.014-0.397 0.079-0.501 0.282-0.218 0.113-0.263 0.359-0.294 0.581 0 0.188 0.159 0.501 0.404 0.435 0.241-0.075 0.466 0.114 0.271 0.331 0.073 0.294-0.28 0.444-0.347 0.703-0.084 0.075-0.287 0.342-0.024 0.236 0.268-0.123 0.515-0.308 0.727-0.513 0.185-0.264 0.442-0.497 0.55-0.801-0.045-0.224 0.044-0.547 0.007-0.776 0.102 0.192-0.020 0.494 0.038 0.64 0.078-0.152 0.1-0.332 0.117-0.502l-0.008-0.008zM19.848 16.432c-0.153 0.025-0.28-0.155-0.152-0.239 0.044 0.091 0.155 0.128 0.152 0.239zM19.224 18.484c-0.071 0.118-0.125 0.121 0 0zM19.279 18.287c-0.071 0.178-0.094 0.092 0 0zM19.427 18.080c-0.035 0.078-0.034-0.029 0 0zM19.223 16.375c-0.089-0.102-0.015 0.176 0 0zM18.338 15.080c-0.134-0.095-0.387-0.091-0.201 0.053 0.050 0.014 0.206 0.028 0.201-0.056v0.003zM18.57 14.617c0.057-0.053-0.235-0.212-0.107-0.072 0.035 0.025 0.071 0.047 0.107 0.072zM16.934 15.64c-0.141-0.019-0.007-0.172-0.085-0.112-0.213 0.099-0.030 0.197 0.094 0.203 0.017-0.132-0.023 0.053-0.009-0.092v0.001zM17.303 18.067c-0.090-0.185-0.4-0.219-0.509-0.277-0.017-0.094-0.182 0.058-0.047-0.104 0.008-0.218-0.364-0.204-0.445-0.402-0.112-0.075-0.367-0.062-0.362-0.092-0.031-0.163-0.223 0.166-0.351 0.014-0.117-0.050-0.005-0.355-0.221-0.311 0.116-0.208 0.021-0.274-0.14-0.134-0.166-0.126-0.061-0.58 0.195-0.451 0.151-0.237 0.278 0.451 0.26 0.067 0.003-0.215 0.314-0.232 0.271-0.407 0.029 0.073 0.154-0.146 0.263-0.136 0.023-0.095 0.388-0.155 0.185-0.049 0.091 0.050 0.376-0.123 0.143-0.062-0.102-0.054 0.022-0.254-0.163-0.149-0.208 0.054 0.248-0.12 0.33-0.053 0.128 0.053 0.251-0.133 0.098-0.149 0.095 0.003-0.107-0.137-0.065-0.249-0.040-0.088-0.22 0.106-0.172-0.078-0.020-0.243-0.317-0.063-0.302 0.115-0.091 0.064-0.127 0.174-0.212 0.206-0.064-0.096 0.053-0.176-0.102-0.21-0.181-0.256 0.24-0.371 0.42-0.423 0.124 0.011 0.235-0.192 0.043-0.094-0.174 0.063 0.116-0.227 0.137-0.204-0.193 0.023-0.298 0.298-0.502 0.168-0.157-0.101-0.423 0.247-0.596 0.368-0.267 0.286-0.492 0.624-0.575 1.013 0.031 0.13-0.036 0.453 0.032 0.472-0.016-0.098 0-0.415 0.014-0.157 0.036 0.246 0.055 0.558 0.345 0.611 0.145 0.080 0.227 0.414 0.404 0.326 0.164 0.184-0.183 0.485 0.058 0.663 0.11 0.236 0.423 0.359 0.397 0.663 0.053 0.283 0.178 0.623 0.476 0.725-0.169-0.095-0.181-0.329-0.046-0.4-0.033-0.097 0.166-0.031 0.17-0.173 0.109-0.204 0.367-0.166 0.409-0.424 0.023-0.097 0.173-0.143 0.171-0.232l-0.014 0.007zM15.655 15.209c-0.009 0.168-0.129 0.168 0 0zM15.917 15.782c-0.092 0.074-0.208-0.020-0.036-0.005l0.036 0.005zM15.926 15.736c0.143-0.033 0.105 0.062 0 0zM15.823 15.59c0.211 0.034-0.048 0.233-0.028 0.040-0.081-0.011-0.169 0.255-0.115 0.040 0.011-0.074 0.087-0.041 0.143-0.078v-0.002zM15.694 15.51c0.14-0.117 0.128 0.174 0.014 0.028-0.070 0.040-0.159-0.014-0.014-0.028v0zM15.625 14.872c0.129-0.097 0.205-0.010 0 0zM16.090 18.233c-0.093-0.052 0.019-0.063 0 0zM15.985 16.904c0.247-0.038-0.304-0.11-0.057 0.001 0.008 0.004 0.049 0.025 0.057-0.001zM18.064 14.833c-0.136 0.023-0.163-0.166-0.044-0.029 0.137 0.005-0.176-0.203 0.044-0.123-0.020-0.121-0.085-0.232-0.078-0.302-0.047 0-0.265-0.054-0.1-0.047-0.252-0.094-0.535-0.046-0.779 0.037 0.16 0.026-0.13 0.041 0.062 0.074 0.193 0.023 0.053 0.2 0.13 0.248-0.083-0.017 0.085 0.090-0.054 0.128-0.141 0.115 0.068 0.473 0.25 0.316 0.064-0.247 0.355-0.209 0.546-0.287l0.023-0.015zM16.192 16.936c-0.029-0.081-0.093 0.053 0 0zM16.616 15.596c0.040-0.101-0.129-0.012 0 0z"></path>
<path fill="#f00" d="M0 17.203l7.038 6.797 7.553-15.677-8.919 10.994z"></path>
</svg>
