<?xml version="1.0" encoding="utf-8"?>
<!-- Generated by IcoMoon.io -->
<!DOCTYPE svg PUBLIC "-//W3C//DTD SVG 1.1//EN" "http://www.w3.org/Graphics/SVG/1.1/DTD/svg11.dtd">
<svg version="1.1" xmlns="http://www.w3.org/2000/svg" xmlns:xlink="http://www.w3.org/1999/xlink" width="24" height="24" viewBox="0 0 24 24">
<path fill="#284b87" d="M19.447 0.044h-13.427v23.956h17.965v-18.702h0.015l-4.553-5.254zM21.701 5.285h-2.954l-0.028-3.529 2.981 3.529zM22.488 6.779v15.724h-14.971v-20.961h9.732v5.24l5.239-0.003z"></path>
<path fill="#284b87" d="M22.488 6.779v-0.001l-5.239 0.004z"></path>
<path fill="#fff" d="M21.701 5.285h-2.954l-0.028-3.529z"></path>
<path fill="#fff" d="M22.488 6.779v15.724h-14.971v-20.961h9.732v5.24z"></path>
<path fill="#284b87" d="M13.918 16.986l-0.036-0.46c-0.107-0.958 0.213-2.007 1.101-3.072 0.798-0.941 1.242-1.634 1.242-2.433 0-0.906-0.568-1.508-1.687-1.527-0.64 0-1.35 0.213-1.793 0.55l-0.427-1.118c0.586-0.426 1.599-0.71 2.539-0.71 2.043 0 2.965 1.261 2.965 2.609 0 1.207-0.675 2.077-1.528 3.090-0.781 0.922-1.065 1.703-1.012 2.609l0.017 0.46-1.382 0.002zM13.527 19.473c0-0.657 0.444-1.118 1.065-1.118s1.047 0.461 1.047 1.118c0 0.62-0.407 1.101-1.065 1.101-0.621 0-1.047-0.481-1.047-1.101z"></path>
<path fill="#f00" d="M0 18.143l6.063 5.857 6.508-13.505-7.684 9.47z"></path>
</svg>
