<?xml version="1.0" encoding="utf-8"?>
<!-- Generated by IcoMoon.io -->
<!DOCTYPE svg PUBLIC "-//W3C//DTD SVG 1.1//EN" "http://www.w3.org/Graphics/SVG/1.1/DTD/svg11.dtd">
<svg version="1.1" xmlns="http://www.w3.org/2000/svg" xmlns:xlink="http://www.w3.org/1999/xlink" width="24" height="24" viewBox="0 0 24 24">
<path fill="#f00" d="M9.399 16.735l7.038 6.797 7.552-15.677-8.918 10.994z"></path>
<path fill="#edc87e" d="M20.56 3.583h-2.927v-0.334c0-0.793-0.642-1.434-1.433-1.434h-6.29l-1.878-1.816h-6.598c-0.792 0-1.434 0.643-1.434 1.434v12.11c0 0.79 0.642 1.432 1.434 1.432l14.766 0.005c0.607 0 1.122-0.378 1.331-0.909v-0.001l3.568-9.628c0.177-0.475-0.064-0.859-0.539-0.859zM1.665 0.869h6.144l1.823 1.729h6.196c0.511 0 0.922 0.413 0.922 0.923v0.062h-11.517c-0.476 0-1.003 0.385-1.18 0.86l-3.218 8.683v-11.428c0-0.458 0.372-0.83 0.829-0.83z"></path>
<path fill="#fff" d="M1.665 0.869h6.144l1.823 1.729h6.196c0.511 0 0.922 0.413 0.922 0.923v0.062h-11.517c-0.476 0-1.003 0.385-1.18 0.86l-3.218 8.683v-11.428c0-0.458 0.372-0.83 0.829-0.83z"></path>
</svg>
