<?xml version="1.0" encoding="utf-8"?>
<!-- Generated by IcoMoon.io -->
<!DOCTYPE svg PUBLIC "-//W3C//DTD SVG 1.1//EN" "http://www.w3.org/Graphics/SVG/1.1/DTD/svg11.dtd">
<svg version="1.1" xmlns="http://www.w3.org/2000/svg" xmlns:xlink="http://www.w3.org/1999/xlink" width="24" height="24" viewBox="0 0 24 24">
<path fill="#8a49eb" d="M11.174 20.252l12.72-8.542c0 0 0.329-0.175-0.132-0.417s-0.681-0.329-0.681-0.329l-12.28 8.333-9.364-5.155c0 0-0.971-2.392-0.786-3.057 0 0-0.486-0.32-0.486 0.229 0 0.548-0.021 2.653 1.295 3.377 1.314 0.726 9.714 5.56 9.714 5.56z"></path>
<path fill="#e2e3e4" d="M0.582 11.059c0 0-0.234 1.895 0.731 3.069l9.766 5.453 12.253-8.188c0 0-0.724-1.385-0.328-2.871l-12.582 7.723-9.84-5.186z"></path>
<path fill="#c7c7c7" d="M11.048 19.604c-1.107-1.595-0.399-3.395-0.392-3.413l0.071 0.028c-0.008 0.017-0.699 1.78 0.383 3.342l-0.062 0.043z"></path>
<path fill="#8a49eb" d="M10.641 16.277l13.231-8.296c0 0 0.262-0.197-0.197-0.394-0.461-0.197-10.222-3.838-10.222-3.838l-13.243 7.001z"></path>
<path fill="#4c02ba" d="M0.844 11.183c0 0-0.559-0.406-0.547 0.285 0.012 0.747 0.198 2.522 1.206 3.092s9.343 5.241 9.343 5.241 0.439 0.174 0.329 0.45l-9.781-5.441c0 0-0.899-0.502-1.218-2.234 0 0-0.646-2.324 0.483-1.776s9.705 5.033 9.705 5.033 0.394 0.141 0.329 0.372c-0.065 0.231-0.439-0.066-0.439-0.066l-9.409-4.956z"></path>
</svg>
