<?xml version="1.0" encoding="utf-8"?>
<!-- Generated by IcoMoon.io -->
<!DOCTYPE svg PUBLIC "-//W3C//DTD SVG 1.1//EN" "http://www.w3.org/Graphics/SVG/1.1/DTD/svg11.dtd">
<svg version="1.1" xmlns="http://www.w3.org/2000/svg" xmlns:xlink="http://www.w3.org/1999/xlink" width="24" height="24" viewBox="0 0 24 24">
<path fill="#fff" d="M16.468 6.757v15.725h-14.972v-20.962h9.731v5.24z"></path>
<path fill="#808080" d="M13.427 0.022h-13.427v23.956h17.965v-18.702h0.015l-4.553-5.255zM15.679 5.263h-2.954l-0.027-3.529 2.981 3.529zM16.468 6.757v15.725h-14.972v-20.962h9.731v5.24l5.24-0.002z"></path>
<path fill="#808080" d="M16.468 6.757v-0.001l-5.24 0.004z"></path>
<path fill="#fff" d="M15.679 5.263h-2.953l-0.028-3.529z"></path>
<path fill="#284b87" d="M8.549 16.61c0-0.228 0-0.453 0-0.68 0.005-0.036 0.010-0.071 0.014-0.107 0.031-0.267 0.062-0.536 0.090-0.805 0.005-0.041 0.020-0.057 0.062-0.060 0.121-0.010 0.241-0.021 0.361-0.033 0.563-0.053 1.127-0.109 1.691-0.159 0.067-0.005 0.096-0.030 0.114-0.094 0.108-0.378 0.258-0.738 0.449-1.081 0.036-0.064 0.026-0.101-0.017-0.152-0.364-0.437-0.727-0.876-1.090-1.314-0.085-0.104-0.17-0.206-0.258-0.311 0.514-0.723 1.13-1.337 1.852-1.848 0.025 0.021 0.048 0.038 0.070 0.056 0.52 0.43 1.041 0.859 1.56 1.291 0.050 0.042 0.086 0.050 0.145 0.016 0.337-0.188 0.69-0.335 1.061-0.439 0.086-0.025 0.113-0.065 0.121-0.15 0.061-0.674 0.125-1.348 0.188-2.022 0.003-0.043 0.016-0.063 0.062-0.068 0.143-0.017 0.285-0.041 0.428-0.058 0.16-0.018 0.322-0.031 0.483-0.046 0.175 0 0.351 0 0.525 0 0.030 0.004 0.061 0.009 0.091 0.012 0.323 0.032 0.646 0.064 0.968 0.095 0.047 0.005 0.067 0.022 0.069 0.071 0.008 0.115 0.020 0.231 0.032 0.346 0.053 0.569 0.109 1.139 0.16 1.707 0.005 0.062 0.026 0.091 0.088 0.11 0.383 0.11 0.749 0.259 1.096 0.453 0.055 0.031 0.087 0.022 0.133-0.016 0.52-0.434 1.043-0.864 1.565-1.295 0.021-0.017 0.043-0.035 0.070-0.056 0.722 0.513 1.339 1.125 1.851 1.847-0.021 0.026-0.038 0.047-0.056 0.069-0.434 0.524-0.866 1.048-1.301 1.569-0.038 0.046-0.042 0.077-0.013 0.128 0.196 0.352 0.349 0.722 0.46 1.109 0.014 0.047 0.032 0.071 0.086 0.076 0.569 0.051 1.139 0.105 1.708 0.159 0.139 0.014 0.28 0.028 0.42 0.043 0.149 0.876 0.151 1.743 0 2.61-0.035 0.005-0.063 0.010-0.091 0.013-0.673 0.063-1.348 0.128-2.021 0.188-0.063 0.006-0.088 0.028-0.105 0.086-0.109 0.383-0.262 0.747-0.455 1.094-0.032 0.058-0.023 0.092 0.016 0.141 0.434 0.522 0.866 1.047 1.299 1.571 0.016 0.020 0.031 0.040 0.048 0.061-0.513 0.721-1.124 1.336-1.843 1.847-0.025-0.020-0.046-0.035-0.065-0.052-0.515-0.424-1.030-0.847-1.541-1.275-0.071-0.060-0.118-0.071-0.204-0.023-0.323 0.183-0.668 0.32-1.022 0.428-0.117 0.034-0.115 0.034-0.127 0.159-0.063 0.671-0.128 1.342-0.188 2.015-0.004 0.045-0.021 0.061-0.064 0.067-0.833 0.131-1.667 0.131-2.5 0-0.039-0.006-0.058-0.018-0.062-0.061-0.019-0.226-0.041-0.452-0.063-0.677-0.042-0.461-0.086-0.922-0.128-1.384-0.005-0.061-0.024-0.092-0.088-0.11-0.383-0.109-0.749-0.261-1.096-0.455-0.053-0.030-0.086-0.025-0.133 0.014-0.521 0.433-1.043 0.863-1.565 1.296-0.024 0.018-0.047 0.038-0.075 0.060-0.721-0.512-1.332-1.127-1.843-1.847 0.019-0.023 0.034-0.044 0.050-0.063 0.434-0.526 0.869-1.052 1.303-1.578 0.026-0.031 0.052-0.055 0.023-0.107-0.203-0.362-0.361-0.745-0.476-1.144-0.012-0.042-0.033-0.055-0.075-0.058-0.564-0.052-1.128-0.105-1.692-0.158-0.147-0.015-0.295-0.029-0.447-0.045-0.022-0.167-0.045-0.325-0.062-0.483-0.018-0.167-0.031-0.331-0.046-0.494z"></path>
<path fill="#fff" d="M16.273 19.214c1.621 0.003 2.938-1.312 2.941-2.935 0.003-1.63-1.306-2.948-2.933-2.95-1.629-0.001-2.945 1.312-2.947 2.938-0.001 1.627 1.313 2.945 2.939 2.947z"></path>
</svg>
