<?xml version="1.0" encoding="utf-8"?>
<!-- Generated by IcoMoon.io -->
<!DOCTYPE svg PUBLIC "-//W3C//DTD SVG 1.1//EN" "http://www.w3.org/Graphics/SVG/1.1/DTD/svg11.dtd">
<svg version="1.1" xmlns="http://www.w3.org/2000/svg" xmlns:xlink="http://www.w3.org/1999/xlink" width="24" height="24" viewBox="0 0 24 24">
<path fill="#edc87e" d="M22.749 18.106c-0.044 0.484-0.472 0.876-0.953 0.876h-20.445c-0.484 0-0.841-0.391-0.796-0.876l1.227-13.469c0.044-0.484 0.472-0.876 0.956-0.876 5.111 0 20.445 0 20.445 0 0.484 0 0.841 0.392 0.797 0.876l-1.231 13.469z"></path>
<path fill="#edc87e" d="M1.038 4.965c0.112-1.149 1.135-2.081 2.284-2.081h19.238v-0.401c0-0.484-0.391-0.876-0.876-0.876h-9.382v-0.73c0-0.485-0.392-0.876-0.876-0.876h-10.55c-0.484 0-0.876 0.392-0.876 0.876v14.745l1.038-10.656z"></path>
<path fill="#fff" d="M22.75 13.679v9.083h-11.21v-13.415h6.877v4.333z"></path>
<path fill="#808080" d="M20.234 8.11h-9.932v15.89h13.687v-11.545h0.011l-3.766-4.346zM22.099 12.445h-2.443l-0.023-2.918 2.466 2.918zM22.75 13.679v9.081h-11.21v-13.412h6.877v4.333l4.333-0.002z"></path>
<path fill="#808080" d="M22.75 13.679v-0.001l-4.332 0.003z"></path>
<path fill="#fff" d="M22.099 12.445h-2.443l-0.023-2.918z"></path>
</svg>
