<?xml version="1.0" encoding="utf-8"?>
<!-- Generated by IcoMoon.io -->
<!DOCTYPE svg PUBLIC "-//W3C//DTD SVG 1.1//EN" "http://www.w3.org/Graphics/SVG/1.1/DTD/svg11.dtd">
<svg version="1.1" xmlns="http://www.w3.org/2000/svg" xmlns:xlink="http://www.w3.org/1999/xlink" width="24" height="24" viewBox="0 0 24 24">
<path fill="#fff" d="M22.488 6.757v15.725h-14.971v-20.962h9.732v5.24z"></path>
<path fill="#808080" d="M19.447 0.022h-13.427v23.956h17.965v-18.702h0.015l-4.553-5.255zM21.701 5.264h-2.954l-0.027-3.529 2.981 3.529zM22.488 6.757v15.725h-14.971v-20.962h9.732v5.24l5.239-0.002z"></path>
<path fill="#808080" d="M22.488 6.757v-0.001l-5.239 0.005z"></path>
<path fill="#fff" d="M21.701 5.264h-2.954l-0.028-3.53z"></path>
<path fill="#000" d="M0 6.635h16.114v13.337h-16.114v-13.337z"></path>
<path fill="#fff" d="M0.751 9.226h14.465v8.109h-14.465v-8.109z"></path>
<path fill="#fff" d="M0.667 7.331h1.159v1.229h-1.159v-1.229z"></path>
<path fill="#fff" d="M2.899 7.331h1.159v1.229h-1.159v-1.229z"></path>
<path fill="#fff" d="M5.129 7.331h1.16v1.229h-1.16v-1.229z"></path>
<path fill="#fff" d="M7.361 7.331h1.16v1.229h-1.16v-1.229z"></path>
<path fill="#fff" d="M9.592 7.331h1.16v1.229h-1.16v-1.229z"></path>
<path fill="#fff" d="M11.825 7.331h1.16v1.229h-1.16v-1.229z"></path>
<path fill="#fff" d="M14.055 7.331h1.16v1.229h-1.16v-1.229z"></path>
<path fill="#fff" d="M0.667 18.056h1.159v1.229h-1.159v-1.229z"></path>
<path fill="#fff" d="M2.899 18.056h1.159v1.229h-1.159v-1.229z"></path>
<path fill="#fff" d="M5.129 18.056h1.16v1.229h-1.16v-1.229z"></path>
<path fill="#fff" d="M7.361 18.056h1.16v1.229h-1.16v-1.229z"></path>
<path fill="#fff" d="M9.592 18.056h1.16v1.229h-1.16v-1.229z"></path>
<path fill="#fff" d="M11.825 18.056h1.16v1.229h-1.16v-1.229z"></path>
<path fill="#fff" d="M14.055 18.056h1.16v1.229h-1.16v-1.229z"></path>
</svg>
