<?xml version="1.0" encoding="utf-8"?>
<!-- Generated by IcoMoon.io -->
<!DOCTYPE svg PUBLIC "-//W3C//DTD SVG 1.1//EN" "http://www.w3.org/Graphics/SVG/1.1/DTD/svg11.dtd">
<svg version="1.1" xmlns="http://www.w3.org/2000/svg" xmlns:xlink="http://www.w3.org/1999/xlink" width="24" height="24" viewBox="0 0 24 24">
<path fill="#284bd8" d="M17.769 8.913c0 4.923-3.978 8.913-8.884 8.913s-8.884-3.99-8.884-8.913c0-4.923 3.978-8.913 8.884-8.913s8.884 3.99 8.884 8.913z"></path>
<path fill="#00c336" d="M6.668 17.224c-0.231-0.172-0.050 0.17 0 0zM7.075 0.581c0.568 0.173 1.534-0.21 2.036-0.372-0.77-0.291-1.319 0.22-2.036 0.372v0zM13.328 4.436c0.322 0.423 0.321 1 0.38 1.218 1.081 0.123-0.006-0.835-0.128-1.247-0.024-0.218-0.282-0.105-0.252 0.029v0zM13.255 4.451c0.089 0.267 0.123-0.11 0 0zM12.986 4.942c-0.148 0.803 0.895 0.045 0.265-0.146l-0.124 0.037-0.141 0.109zM7.549 2.169c0.053-0.225-0.465-0.422-0.204-0.627-0.262-0.188-0.265-0.698-0.555-0.413 0.101-0.307-0.795 0.143-0.105-0.188-0.699-0.127-0.905 0.713-0.080 0.6 0.495 0.623-1.29 0.585-0.287 0.855 0.262 0.458 0.533 0.21 0.832 0.105-0.262-0.555 0.045-0.225 0.315-0.188l0.083-0.145zM4.189 6.33v0zM3.715 8.891c0.405-0.5-1.695-0.767-0.512-0.393 0.182 0.113 0.294 0.338 0.512 0.393v0zM15.842 7.889c-0.578-0.23 0.128 0.57 0 0zM17.682 10.049c0.172-1.405-0.074-2.813-0.435-4.167-0.363-0.915-0.82-1.83-1.486-2.566 0.151 0.63-0.089 0.242-0.36-0.012 0.735 0.262-0.825-1.208-1.012-0.5 0.038 0.637-0.495 1.88 0.51 1.68 0.106 0.357 0.24 0.917 0.481 0.287 0.031-0.32-0.577-1.239-0.157-1.189 0 0.473 0.443 0.9 0.674 0.892-0.352 0.18 0.106 0.322-0.164 0.518 0.053 0.66-0.953 0.188-0.938-0.315 0.18 0.682-0.458 1.102-1.103 1.313 0.841 0.457 0.209 1.035-0.404 0.72-0.541 0.795 0.69 1.68 1.102 0.683 0.293-1.020 1.351-0.247 1.546 0.435 0.457-0.262-0.99-1.402-0.082-0.885 0.277 0.293 0.472 1.26 0.697 1.125-0.188-0.457 0.457-0.637 0.195-0.082 0.247 0.36 1.057 0.69 0.383 1.178-0.383-0.113-0.877-0.405-1.058-0.075-0.69-0.375-0.578-1.485-1.567-1.103-0.765-0.045-1.351 0.27-1.703 0.96-0.743 0.383-0.893 1.215-0.998 1.973 0 0.637 0.54 1.703 1.373 1.477 0.817-0.256 1.582 0.39 0.922 1.125 0.246 0.997-0.947 1.507-1.177 2.385-0.286 0.255-0.976 1.162-0.083 0.803 0.916-0.42 1.747-1.043 2.468-1.74 0.63-0.893 1.5-1.688 1.867-2.722-0.151-0.758 0.149-1.853 0.022-2.633 0.346 0.652-0.068 1.672 0.128 2.175 0.262-0.518 0.338-1.125 0.397-1.703l-0.036-0.035zM17.433 7.618c-0.52 0.090-0.95-0.521-0.517-0.81 0.154 0.309 0.53 0.435 0.517 0.81zM15.315 14.585c-0.24 0.401-0.424 0.413 0 0zM15.504 13.916c-0.24 0.607-0.318 0.315 0 0zM16.005 13.218c-0.115 0.263-0.112-0.098 0 0zM15.311 7.428c-0.302-0.345-0.047 0.6 0 0zM12.307 3.033c-0.449-0.322-1.309-0.308-0.677 0.18 0.171 0.045 0.7 0.097 0.677-0.188v0.007zM13.094 1.458c0.195-0.18-0.803-0.72-0.36-0.24 0.117 0.083 0.24 0.157 0.36 0.24zM7.542 4.931c-0.478-0.068-0.021-0.585-0.289-0.383-0.725 0.338-0.102 0.667 0.319 0.69 0.055-0.45-0.080 0.18-0.030-0.315v0.008zM8.795 13.173c-0.309-0.63-1.361-0.742-1.729-0.945-0.058-0.315-0.615 0.203-0.161-0.346 0.026-0.742-1.237-0.697-1.509-1.364-0.382-0.256-1.245-0.21-1.23-0.316-0.105-0.554-0.757 0.563-1.192 0.046-0.397-0.172-0.015-1.207-0.75-1.057 0.398-0.705 0.075-0.93-0.472-0.45-0.563-0.428-0.21-1.973 0.66-1.53 0.518-0.81 0.945 1.53 0.885 0.225 0.008-0.728 1.065-0.788 0.922-1.38 0.098 0.248 0.525-0.495 0.892-0.465 0.075-0.322 1.313-0.525 0.63-0.165 0.307 0.173 1.275-0.42 0.487-0.21-0.345-0.188 0.075-0.862-0.555-0.51-0.705 0.188 0.848-0.405 1.125-0.18 0.435 0.18 0.855-0.45 0.33-0.502 0.322 0.007-0.36-0.465-0.217-0.848-0.135-0.3-0.75 0.36-0.585-0.27-0.068-0.825-1.072-0.21-1.028 0.397-0.308 0.217-0.428 0.592-0.72 0.698-0.218-0.323 0.18-0.6-0.345-0.713-0.615-0.87 0.817-1.26 1.425-1.44 0.42 0.037 0.795-0.653 0.143-0.315-0.593 0.21 0.397-0.772 0.465-0.698-0.652 0.075-1.012 1.013-1.702 0.57-0.532-0.345-1.44 0.84-2.025 1.253-0.907 0.967-1.672 2.115-1.95 3.435 0.105 0.442-0.12 1.538 0.113 1.605-0.060-0.337 0-1.41 0.045-0.533 0.12 0.832 0.188 1.89 1.17 2.077 0.495 0.269 0.773 1.402 1.372 1.103 0.555 0.631-0.622 1.65 0.195 2.25 0.375 0.803 1.44 1.226 1.35 2.25 0.18 0.963 0.608 2.117 1.612 2.463-0.57-0.322-0.615-1.117-0.15-1.358-0.113-0.329 0.559-0.103 0.574-0.592 0.368-0.697 1.253-0.563 1.388-1.44 0.082-0.327 0.592-0.487 0.58-0.788l-0.043 0.043zM3.197 3.469c-0.027 0.57-0.437 0.57 0 0zM4.086 5.411c-0.311 0.247-0.708-0.067-0.122-0.015l0.122 0.015zM4.118 5.261c0.48-0.12 0.353 0.21 0 0zM3.769 4.762c0.714 0.113-0.167 0.789-0.098 0.135-0.277-0.040-0.57 0.863-0.39 0.131 0.033-0.247 0.296-0.135 0.488-0.262v-0.003zM3.332 4.489c0.47-0.397 0.43 0.593 0.045 0.095-0.242 0.135-0.537-0.046-0.045-0.095v0zM3.097 2.321c0.438-0.33 0.697-0.028 0 0zM4.675 13.733c-0.315-0.175 0.060-0.211 0 0zM4.316 9.221c0.84-0.127-1.035-0.375-0.195 0.002 0.030 0.012 0.173 0.089 0.195-0.002zM11.38 2.192c-0.464 0.079-0.555-0.56-0.149-0.102 0.464 0.019-0.601-0.686 0.149-0.416-0.075-0.413-0.293-0.788-0.262-1.024-0.158-0.002-0.9-0.185-0.338-0.16-0.855-0.317-1.815-0.152-2.647 0.124 0.54 0.089-0.442 0.137 0.21 0.25 0.652 0.079 0.18 0.683 0.443 0.843-0.285-0.060 0.285 0.308-0.188 0.435-0.48 0.39 0.232 1.605 0.847 1.072 0.218-0.84 1.207-0.712 1.853-0.975l0.082-0.047zM5.021 9.332c-0.098-0.279-0.315 0.182 0 0zM6.461 4.783c0.135-0.343-0.435-0.041 0 0z"></path>
<path fill="#fff" d="M22.75 13.679v9.083h-12.382v-13.415h8.050v4.333z"></path>
<path fill="#284b87" d="M20.234 8.11h-11.104v15.89h14.858v-11.545h0.011l-3.766-4.346zM22.099 12.445h-2.443l-0.023-2.918 2.466 2.918zM22.75 13.679v9.081h-12.382v-13.412h8.049v4.333l4.333-0.002z"></path>
<path fill="#284b87" d="M22.75 13.679v-0.001l-4.332 0.003z"></path>
<path fill="#284b87" d="M21.358 17.093c0 0.286-0.277 0.517-0.619 0.517h-8.346c-0.343 0-0.622-0.234-0.622-0.517v-0.484c0-0.287 0.277-0.518 0.622-0.518h8.345c0.343 0 0.62 0.233 0.62 0.518v0.484h0.001z"></path>
<path fill="#284b87" d="M21.358 20.034c0 0.288-0.277 0.519-0.619 0.519h-8.346c-0.343 0-0.622-0.235-0.622-0.519v-0.483c0-0.286 0.277-0.518 0.622-0.518h8.345c0.343 0 0.62 0.234 0.62 0.518v0.483h0.001z"></path>
<path fill="#fff" d="M22.099 12.445h-2.443l-0.023-2.918z"></path>
</svg>
