<?xml version="1.0" encoding="utf-8"?>
<!-- Generated by IcoMoon.io -->
<!DOCTYPE svg PUBLIC "-//W3C//DTD SVG 1.1//EN" "http://www.w3.org/Graphics/SVG/1.1/DTD/svg11.dtd">
<svg version="1.1" xmlns="http://www.w3.org/2000/svg" xmlns:xlink="http://www.w3.org/1999/xlink" width="24" height="24" viewBox="0 0 24 24">
<path fill="#8a49eb" d="M1.866 4.19c0 0-0.692-0.25-0.692 0.611s-1.084 11.636-1.084 11.636-0.177 0.51 0.676 0.733c0.85 0.221 9.459 2.648 9.459 2.648s1.685-0.965 3.482 0.017l9.884-2.834c0 0 0.424 0.037 0.37-0.646-0.055-0.685-1.091-11.793-1.091-11.793s-0.13-0.535-0.724-0.332l-10.125 1.999-10.156-2.038z"></path>
<path fill="#3c0f80" d="M13.699 19.917l-0.028-0.016c-0.523-0.288-1.090-0.433-1.684-0.433-0.991 0-1.717 0.407-1.724 0.416l-0.026 0.015-0.031-0.008c-0.086-0.024-8.619-2.427-9.459-2.647-0.343-0.090-0.575-0.238-0.681-0.439-0.11-0.203-0.049-0.383-0.047-0.39 0.007-0.092 1.079-10.765 1.079-11.612 0.001-0.625 0.349-0.719 0.557-0.719 0.131 0 0.234 0.037 0.237 0.038l10.13 2.030 10.113-1.995c0.087-0.030 0.179-0.047 0.265-0.047 0.347 0 0.509 0.285 0.546 0.437 0.011 0.121 1.039 11.128 1.093 11.806 0.021 0.268-0.024 0.472-0.141 0.597-0.11 0.121-0.253 0.13-0.293 0.13l-9.906 2.837zM11.986 19.319c0.608 0 1.191 0.148 1.731 0.436l9.884-2.827c0.029 0 0.116-0.006 0.188-0.082 0.086-0.092 0.121-0.259 0.102-0.485-0.053-0.676-1.082-11.681-1.093-11.792-0.003-0.002-0.081-0.311-0.397-0.311-0.069 0-0.142 0.015-0.224 0.043l-10.153 2.004-10.169-2.040c-0.011-0.004-0.095-0.031-0.197-0.031-0.271 0-0.407 0.191-0.407 0.569 0 0.854-1.040 11.203-1.085 11.644-0.005 0.020-0.044 0.146 0.035 0.29 0.086 0.159 0.29 0.286 0.587 0.363 0.817 0.212 8.878 2.484 9.432 2.64 0.146-0.082 0.837-0.421 1.768-0.421z"></path>
<path fill="#e2e3e4" d="M2.475 5.828l1.256-1.577 8.273 2.898 8.309-2.883 1.217 1.482 0.832 10.22-8.746 2.654c0 0-1.492-2.33-3.205 0.017l-8.732-2.623 0.796-10.189z"></path>
<path fill="#fdfeff" d="M3.732 4.252l-0.664 9.866c0 0 6.291-0.324 8.969 3.476 0 0 2.324-3.586 8.901-3.476l-0.624-9.851c0 0-4.699-0.434-8.31 2.882 0 0.002-2.525-2.88-8.272-2.896z"></path>
</svg>
