<?xml version="1.0" encoding="utf-8"?>
<!-- Generated by IcoMoon.io -->
<!DOCTYPE svg PUBLIC "-//W3C//DTD SVG 1.1//EN" "http://www.w3.org/Graphics/SVG/1.1/DTD/svg11.dtd">
<svg version="1.1" xmlns="http://www.w3.org/2000/svg" xmlns:xlink="http://www.w3.org/1999/xlink" width="24" height="24" viewBox="0 0 24 24">
<path fill="#fff" d="M16.468 6.757v15.725h-14.972v-20.962h9.731v5.24z"></path>
<path fill="#808080" d="M13.427 0.022h-13.427v23.956h17.965v-18.702h0.015l-4.553-5.255zM15.679 5.263h-2.954l-0.027-3.529 2.981 3.529zM16.468 6.757v15.725h-14.972v-20.962h9.731v5.24l5.24-0.002z"></path>
<path fill="#808080" d="M16.468 6.757v-0.001l-5.24 0.004z"></path>
<path fill="#fff" d="M15.679 5.263h-2.953l-0.028-3.529z"></path>
<path fill="#fff" d="M23.137 16.139c0 3.866-3.134 7-7 7s-7-3.134-7-7c0-3.866 3.134-7 7-7s7 3.134 7 7z"></path>
<path fill="#284b87" d="M16.137 24c-4.336 0-7.862-3.526-7.862-7.861s3.527-7.862 7.862-7.862c4.336-0.002 7.863 3.526 7.863 7.862 0 4.335-3.527 7.861-7.863 7.861zM16.137 10c-3.385 0-6.138 2.754-6.138 6.139s2.753 6.137 6.138 6.137c3.385 0 6.139-2.753 6.139-6.137-0.002-3.385-2.756-6.139-6.139-6.139z"></path>
<path fill="#284b87" d="M15.34 17.929l-0.025-0.319c-0.073-0.662 0.147-1.388 0.761-2.124 0.552-0.65 0.86-1.13 0.86-1.682 0-0.626-0.392-1.043-1.167-1.055-0.442 0-0.933 0.147-1.239 0.381l-0.295-0.773c0.406-0.295 1.106-0.491 1.756-0.491 1.412 0 2.050 0.872 2.050 1.804 0 0.835-0.467 1.436-1.057 2.137-0.54 0.638-0.736 1.178-0.7 1.804l0.012 0.318-0.956 0.001zM15.070 19.648c0-0.454 0.307-0.773 0.736-0.773s0.724 0.319 0.724 0.773c0 0.429-0.282 0.762-0.737 0.762-0.43 0-0.724-0.332-0.724-0.762z"></path>
<path fill="#f00" d="M0 8.154l6.463 6.241 6.937-14.395-8.191 10.095z"></path>
</svg>
