<?xml version="1.0" encoding="utf-8"?>
<!-- Generated by IcoMoon.io -->
<!DOCTYPE svg PUBLIC "-//W3C//DTD SVG 1.1//EN" "http://www.w3.org/Graphics/SVG/1.1/DTD/svg11.dtd">
<svg version="1.1" xmlns="http://www.w3.org/2000/svg" xmlns:xlink="http://www.w3.org/1999/xlink" width="24" height="24" viewBox="0 0 24 24">
<path fill="#fff" d="M22.488 6.757v15.725h-14.971v-20.962h9.732v5.24z"></path>
<path fill="#808080" d="M19.447 0.022h-13.427v23.956h17.965v-18.702h0.015l-4.553-5.255zM21.701 5.264h-2.954l-0.027-3.529 2.981 3.529zM22.488 6.757v15.725h-14.971v-20.962h9.732v5.24l5.239-0.002z"></path>
<path fill="#808080" d="M22.488 6.757v-0.001l-5.239 0.005z"></path>
<path fill="#fff" d="M21.701 5.264h-2.954l-0.028-3.53z"></path>
<path fill="#3468a5" d="M0 11.002h3.833l5.177-5.058v15.768l-5.098-5.099h-3.913z"></path>
<path fill="#3468a5" d="M11.783 18.139l-1.379-1.706c1.156-0.933 1.721-1.849 1.681-2.718-0.053-1.169-1.218-2.192-1.662-2.488l1.203-1.834c0.103 0.067 2.519 1.675 2.649 4.202 0.082 1.611-0.758 3.139-2.492 4.543z"></path>
<path fill="#3468a5" d="M14.881 21.527l-1.501-1.6c2.162-2.028 3.223-4.141 3.152-6.281-0.113-3.446-3.074-5.914-3.105-5.939l1.391-1.695c0.153 0.126 3.759 3.133 3.905 7.562 0.094 2.797-1.199 5.473-3.842 7.953z"></path>
</svg>
