<?xml version="1.0" encoding="utf-8"?>
<!-- Generated by IcoMoon.io -->
<!DOCTYPE svg PUBLIC "-//W3C//DTD SVG 1.1//EN" "http://www.w3.org/Graphics/SVG/1.1/DTD/svg11.dtd">
<svg version="1.1" xmlns="http://www.w3.org/2000/svg" xmlns:xlink="http://www.w3.org/1999/xlink" width="24" height="24" viewBox="0 0 24 24">
<path fill="#284b87" d="M16.437 0.022h-13.427v23.956h17.966v-18.702h0.015l-4.553-5.254zM18.69 5.263h-2.953l-0.028-3.529 2.981 3.529zM19.478 6.757v15.725h-14.971v-20.961h9.732v5.24l5.239-0.003z"></path>
<path fill="#284b87" d="M19.478 6.757v-0.001l-5.24 0.004z"></path>
<path fill="#fff" d="M18.69 5.263h-2.953l-0.028-3.529z"></path>
<path fill="#fff" d="M19.478 6.757v15.725h-14.971v-20.961h9.731v5.24l5.24-0.003z"></path>
<path fill="#284b87" d="M10.907 16.965l-0.036-0.46c-0.107-0.958 0.213-2.006 1.1-3.072 0.799-0.941 1.243-1.634 1.243-2.432 0-0.906-0.568-1.508-1.687-1.527-0.639 0-1.349 0.213-1.793 0.55l-0.427-1.118c0.587-0.426 1.598-0.71 2.539-0.71 2.043 0 2.965 1.261 2.965 2.609 0 1.207-0.675 2.077-1.527 3.089-0.782 0.923-1.065 1.703-1.013 2.609l0.018 0.461-1.383 0.001zM10.517 19.451c0-0.657 0.444-1.118 1.065-1.118s1.047 0.461 1.047 1.118c0 0.62-0.407 1.101-1.064 1.101-0.622-0.001-1.048-0.481-1.048-1.101z"></path>
</svg>
