<?xml version="1.0" encoding="utf-8"?>
<!-- Generated by IcoMoon.io -->
<!DOCTYPE svg PUBLIC "-//W3C//DTD SVG 1.1//EN" "http://www.w3.org/Graphics/SVG/1.1/DTD/svg11.dtd">
<svg version="1.1" xmlns="http://www.w3.org/2000/svg" xmlns:xlink="http://www.w3.org/1999/xlink" width="24" height="24" viewBox="0 0 24 24">
<path fill="#fff" d="M19.478 6.757v15.725h-14.971v-20.962h9.731v5.241z"></path>
<path fill="#808080" d="M16.437 0.022h-13.427v23.956h17.965v-18.702h0.015l-4.553-5.255zM18.69 5.265h-2.953l-0.028-3.529 2.981 3.529zM19.478 6.757v15.725h-14.971v-20.962h9.732v5.24l5.239-0.002z"></path>
<path fill="#808080" d="M19.478 6.757v-0.001l-5.24 0.005z"></path>
<path fill="#fff" d="M18.69 5.265h-2.953l-0.028-3.53z"></path>
<path fill="#284b87" d="M10.879 7.594h-0.018l-1.016 0.549-0.153-0.603 1.277-0.684h0.675v5.847h-0.765v-5.109z"></path>
<path fill="#284b87" d="M13.841 12.236c0-0.333 0.225-0.567 0.54-0.567s0.53 0.234 0.53 0.567c0 0.324-0.206 0.566-0.54 0.566-0.315 0-0.53-0.242-0.53-0.566z"></path>
<path fill="#284b87" d="M9.161 20.719v-0.485l0.621-0.604c1.493-1.421 2.168-2.176 2.176-3.058 0-0.593-0.288-1.141-1.16-1.141-0.531 0-0.971 0.27-1.241 0.494l-0.252-0.557c0.405-0.341 0.981-0.593 1.655-0.593 1.259 0 1.79 0.863 1.79 1.7 0 1.079-0.782 1.953-2.015 3.141l-0.468 0.43v0.018h2.626v0.656l-3.733-0.001z"></path>
<path fill="#284b87" d="M13.841 20.252c0-0.332 0.225-0.567 0.54-0.567s0.53 0.235 0.53 0.567c0 0.324-0.206 0.566-0.54 0.566-0.315 0-0.53-0.242-0.53-0.566z"></path>
<path fill="#f00" d="M11.429 13.519l6.063 5.857 6.508-13.505-7.684 9.47z"></path>
</svg>
