<?xml version="1.0" encoding="utf-8"?>
<!-- Generated by IcoMoon.io -->
<!DOCTYPE svg PUBLIC "-//W3C//DTD SVG 1.1//EN" "http://www.w3.org/Graphics/SVG/1.1/DTD/svg11.dtd">
<svg version="1.1" xmlns="http://www.w3.org/2000/svg" xmlns:xlink="http://www.w3.org/1999/xlink" width="24" height="24" viewBox="0 0 24 24">
<path fill="#fff" d="M16.468 6.757v15.725h-14.972v-20.962h9.731v5.24z"></path>
<path fill="#808080" d="M13.427 0.022h-13.427v23.956h17.965v-18.702h0.015l-4.553-5.255zM15.679 5.263h-2.954l-0.027-3.529 2.981 3.529zM16.468 6.757v15.725h-14.972v-20.962h9.731v5.24l5.24-0.002z"></path>
<path fill="#808080" d="M16.468 6.757v-0.001l-5.24 0.004z"></path>
<path fill="#fff" d="M15.679 5.263h-2.953l-0.028-3.529z"></path>
<path fill="#284b87" d="M22.72 11.006h-12.959c-0.707 0-1.281 0.574-1.281 1.28v8.355c0 0.706 0.574 1.282 1.281 1.282h12.959c0.706 0 1.28-0.576 1.28-1.282v-8.355c0-0.706-0.575-1.28-1.28-1.28zM13.503 15.97l-4.014 4.138v-7.077l4.014 2.938zM14.325 16.572l2.035 1.49 1.933-1.441 4.329 4.292h-12.509l4.212-4.341zM19.111 16.013l3.879-2.891v6.736l-3.879-3.846zM22.78 12.023l-6.424 4.784-6.547-4.792h12.912c0.020 0.001 0.041 0.001 0.059 0.008z"></path>
<path fill="#fff" d="M13.503 15.97l-4.014 4.138v-7.077z"></path>
<path fill="#fff" d="M14.325 16.572l2.035 1.49 1.933-1.441 4.329 4.292h-12.509z"></path>
<path fill="#fff" d="M19.111 16.013l3.879-2.891v6.737z"></path>
<path fill="#fff" d="M22.78 12.023l-6.424 4.784-6.547-4.792h12.912c0.020 0.001 0.041 0.001 0.059 0.008z"></path>
</svg>
