<?xml version="1.0" encoding="utf-8"?>
<!-- Generated by IcoMoon.io -->
<!DOCTYPE svg PUBLIC "-//W3C//DTD SVG 1.1//EN" "http://www.w3.org/Graphics/SVG/1.1/DTD/svg11.dtd">
<svg version="1.1" xmlns="http://www.w3.org/2000/svg" xmlns:xlink="http://www.w3.org/1999/xlink" width="24" height="24" viewBox="0 0 24 24">
<path fill="#edc87e" d="M22.768 20.614c-0.044 0.485-0.472 0.876-0.954 0.876h-20.444c-0.484 0-0.841-0.391-0.796-0.876l1.227-13.469c0.044-0.485 0.472-0.876 0.956-0.876 5.111 0 20.446 0 20.446 0 0.482 0 0.841 0.392 0.796 0.876l-1.23 13.469z"></path>
<path fill="#edc87e" d="M1.057 7.474c0.112-1.149 1.135-2.081 2.284-2.081h19.238v-0.401c0-0.484-0.391-0.876-0.876-0.876h-9.383v-0.731c0-0.485-0.392-0.876-0.876-0.876h-10.55c-0.484 0-0.876 0.392-0.876 0.876v14.745l1.038-10.656z"></path>
</svg>
