<?xml version="1.0" encoding="utf-8"?>
<!-- Generated by IcoMoon.io -->
<!DOCTYPE svg PUBLIC "-//W3C//DTD SVG 1.1//EN" "http://www.w3.org/Graphics/SVG/1.1/DTD/svg11.dtd">
<svg version="1.1" xmlns="http://www.w3.org/2000/svg" xmlns:xlink="http://www.w3.org/1999/xlink" width="24" height="24" viewBox="0 0 24 24">
<path fill="#fff" d="M16.468 6.757v15.725h-14.972v-20.962h9.731v5.24z"></path>
<path fill="#808080" d="M13.427 0.022h-13.427v23.956h17.965v-18.702h0.015l-4.553-5.255zM15.679 5.263h-2.954l-0.027-3.529 2.981 3.529zM16.468 6.757v15.725h-14.972v-20.962h9.731v5.24l5.24-0.002z"></path>
<path fill="#808080" d="M16.468 6.757v-0.001l-5.24 0.004z"></path>
<path fill="#fff" d="M15.679 5.263h-2.953l-0.028-3.529z"></path>
<path fill="#786717" d="M24 6.84l-8.444 13.068-3.671-2.366 8.444-13.069z"></path>
<path fill="#dec13c" d="M20.495 5.247l2.727 1.758-8.112 12.585-2.727-1.758 8.112-12.585z"></path>
<path fill="#786717" d="M11.893 17.534l3.663 2.366-2.459 1.305-1.442-0.929z"></path>
<path fill="#fff" d="M12.696 20.89l-0.524-0.339 0.194-2.032 2.079 1.34z"></path>
<path fill="#000" d="M11.681 20.234l-0.15 1.771 1.592-0.84z"></path>
</svg>
