<svg xmlns="http://www.w3.org/2000/svg" viewBox="0 0 24 24">
    <path d="M21 3H3C1.9 3 1 3.9 1 5V19C1 20.1 1.9 21 3 21H21C22.1 21 23 20.1 23 19V5C23 3.9 22.1 3 21 3ZM21 19H3V8H21V19ZM21 6H3V5H21V6ZM4 10H20V17H4V10ZM6.5 5.5C6.5 5.78 6.28 6 6 6C5.72 6 5.5 5.78 5.5 5.5C5.5 5.22 5.72 5 6 5C6.28 5 6.5 5.22 6.5 5.5ZM8.5 5.5C8.5 5.78 8.28 6 8 6C7.72 6 7.5 5.78 7.5 5.5C7.5 5.22 7.72 5 8 5C8.28 5 8.5 5.22 8.5 5.5ZM10.5 5.5C10.5 5.78 10.28 6 10 6C9.72 6 9.5 5.78 9.5 5.5C9.5 5.22 9.72 5 10 5C10.28 5 10.5 5.22 10.5 5.5Z"/>
</svg>
