<?xml version="1.0" encoding="utf-8"?>
<!-- Generator: Adobe Illustrator 16.0.0, SVG Export Plug-In . SVG Version: 6.00 Build 0)  -->
<!DOCTYPE svg PUBLIC "-//W3C//DTD SVG 1.1//EN" "http://www.w3.org/Graphics/SVG/1.1/DTD/svg11.dtd">
<svg version="1.1" id="Layer_1" xmlns="http://www.w3.org/2000/svg" xmlns:xlink="http://www.w3.org/1999/xlink" x="0px" y="0px"
	 width="184px" height="184px" viewBox="0 0 184 184" enable-background="new 0 0 184 184"
	 xml:space="preserve" >
<g>
	<linearGradient id="SVGID_1_" gradientUnits="userSpaceOnUse" x1="76.7754" y1="112.4873" x2="76.7754" y2="43.87">
		<stop  offset="0" style="stop-color:#21A9E1"/>
		<stop  offset="1" style="stop-color:#65C5BB"/>
	</linearGradient>
	<path fill-rule="evenodd" clip-rule="evenodd" fill="url(#SVGID_1_)" d="M66.255,126.953c0.183,3.432-0.07,6.634-3.114,8.772
		c-1.818,1.278-3.765,2.058-6.043,1.783c-4.494-0.543-8.167-5.077-7.521-9.313c0.835-5.485,5.274-8.053,12.563-6.836
		c8.734-6.776,17.782-13.795,26.484-20.546c0.147-2.399-1.114-3.144-2.31-3.848c-7.692-4.535-15.415-9.021-23.105-13.562
		c-1.526-0.901-2.989-0.741-4.644-0.389c-4.432,0.942-8.681-1.654-9.848-5.816c-1.489-5.307,2.469-10.671,8.131-10.56
		c2.17,0.042,3.643-0.67,5.202-1.9c7.348-5.799,14.742-11.541,22.117-17.306c0.339-0.264,0.663-0.547,0.873-0.721
		c0.355-8.377,5.181-11.089,10.313-10.5c4.415,0.506,7.764,5.108,7.067,9.628c-0.847,5.497-5.468,7.962-12.857,6.568
		C81.355,58.69,72.928,65.141,64.749,71.4c-0.407,3.606,0.979,5.624,3.739,7.175c7.129,4.004,14.14,8.217,21.203,12.336
		c0.454,0.264,0.953,0.451,1.401,0.66c1.255-0.582,2.371-1.286,3.589-1.63c3.491-0.982,6.763,0.304,9.068,3.395
		c1.644,2.204,1.919,6.569,0.393,8.896c-1.995,3.044-4.855,4.588-8.523,3.991c-1.516-0.248-2.641-0.067-3.861,0.89
		C83.384,113.688,74.958,120.194,66.255,126.953z M62.71,128.974c-0.097-2.456-2.161-4.404-4.633-4.374
		c-2.506,0.03-4.848,2.423-4.65,4.75c0.19,2.239,2.633,4.38,4.889,4.287C60.746,133.536,62.804,131.353,62.71,128.974z
		 M56.706,70.323c-2.429,0.082-4.498,2.232-4.438,4.613c0.061,2.403,2.201,4.449,4.629,4.425c2.502-0.028,4.828-2.411,4.659-4.774
		C61.393,72.299,59.054,70.243,56.706,70.323z M92.637,97.866c0.02,2.337,2.26,4.676,4.424,4.618c2.234-0.06,4.535-2.356,4.567-4.56
		c0.035-2.416-1.968-4.353-4.535-4.387C94.408,93.502,92.614,95.245,92.637,97.866z M98.433,44.326
		c-0.081-2.256-2.239-4.282-4.495-4.22c-2.278,0.063-4.248,2.201-4.158,4.513c0.09,2.34,2.189,4.334,4.448,4.226
		C96.473,48.737,98.512,46.546,98.433,44.326z"/>
	<linearGradient id="SVGID_2_" gradientUnits="userSpaceOnUse" x1="99.6875" y1="87.335" x2="99.6875" y2="54.6614">
		<stop  offset="0" style="stop-color:#B74196"/>
		<stop  offset="1" style="stop-color:#EF7465"/>
	</linearGradient>
	<path fill-rule="evenodd" clip-rule="evenodd" fill="url(#SVGID_2_)" d="M105.916,85.219c-4.723-2.763-9.334-5.522-14.02-8.145
		c-0.854-0.479-2.04-0.633-3.035-0.539c-2.236,0.21-3.756-0.805-4.832-2.54c-1.041-1.677-1.131-3.465,0.154-5.129
		c1.271-1.643,2.854-2.594,5.023-2.159c0.628,0.126,1.253,0.258,2.257,0.467c4.401-3.458,8.978-7.003,13.479-10.643
		c0.596-0.482,0.967-1.392,1.179-2.175c0.965-3.562,3.175-5.257,6.16-4.6c2.554,0.562,4.283,3.28,3.768,5.92
		c-0.586,3-2.993,4.437-6.615,3.956c-0.209-0.028-0.427-0.004-1.076-0.004c-4.896,3.836-10.452,7.419-15.568,12.308
		c1.187,0.924,1.864,1.565,2.643,2.037c3.22,1.951,6.46,3.865,9.711,5.761c1.915,1.115,3.62,2.36,6.236,1.924
		c2.404-0.401,4.441,1.937,4.682,4.402c0.25,2.56-1.552,4.997-4.026,5.446c-2.326,0.422-4.817-1.053-5.583-3.389
		C106.188,87.314,106.134,86.442,105.916,85.219z"/>
</g>
</svg>
