<?xml version="1.0" encoding="utf-8"?>
<!-- Generator: Adobe Illustrator 16.0.0, SVG Export Plug-In . SVG Version: 6.00 Build 0)  -->
<!DOCTYPE svg PUBLIC "-//W3C//DTD SVG 1.1//EN" "http://www.w3.org/Graphics/SVG/1.1/DTD/svg11.dtd">
<svg version="1.1" id="Layer_1" xmlns="http://www.w3.org/2000/svg" xmlns:xlink="http://www.w3.org/1999/xlink" x="0px" y="0px"
	 width="561.452px" height="183.157px" viewBox="0 0 561.452 183.157" enable-background="new 0 0 561.452 183.157"
	 xml:space="preserve">
<g>
	<linearGradient id="SVGID_1_" gradientUnits="userSpaceOnUse" x1="76.7754" y1="112.4873" x2="76.7754" y2="43.87">
		<stop  offset="0" style="stop-color:#21A9E1"/>
		<stop  offset="1" style="stop-color:#65C5BB"/>
	</linearGradient>
	<path fill-rule="evenodd" clip-rule="evenodd" fill="url(#SVGID_1_)" d="M66.255,126.953c0.183,3.432-0.07,6.634-3.114,8.772
		c-1.818,1.278-3.765,2.058-6.043,1.783c-4.494-0.543-8.167-5.077-7.521-9.313c0.835-5.485,5.274-8.053,12.563-6.836
		c8.734-6.776,17.782-13.795,26.484-20.546c0.147-2.399-1.114-3.144-2.31-3.848c-7.692-4.535-15.415-9.021-23.105-13.562
		c-1.526-0.901-2.989-0.741-4.644-0.389c-4.432,0.942-8.681-1.654-9.848-5.816c-1.489-5.307,2.469-10.671,8.131-10.56
		c2.17,0.042,3.643-0.67,5.202-1.9c7.348-5.799,14.742-11.541,22.117-17.306c0.339-0.264,0.663-0.547,0.873-0.721
		c0.355-8.377,5.181-11.089,10.313-10.5c4.415,0.506,7.764,5.108,7.067,9.628c-0.847,5.497-5.468,7.962-12.857,6.568
		C81.355,58.69,72.928,65.141,64.749,71.4c-0.407,3.606,0.979,5.624,3.739,7.175c7.129,4.004,14.14,8.217,21.203,12.336
		c0.454,0.264,0.953,0.451,1.401,0.66c1.255-0.582,2.371-1.286,3.589-1.63c3.491-0.982,6.763,0.304,9.068,3.395
		c1.644,2.204,1.919,6.569,0.393,8.896c-1.995,3.044-4.855,4.588-8.523,3.991c-1.516-0.248-2.641-0.067-3.861,0.89
		C83.384,113.688,74.958,120.194,66.255,126.953z M62.71,128.974c-0.097-2.456-2.161-4.404-4.633-4.374
		c-2.506,0.03-4.848,2.423-4.65,4.75c0.19,2.239,2.633,4.38,4.889,4.287C60.746,133.536,62.804,131.353,62.71,128.974z
		 M56.706,70.323c-2.429,0.082-4.498,2.232-4.438,4.613c0.061,2.403,2.201,4.449,4.629,4.425c2.502-0.028,4.828-2.411,4.659-4.774
		C61.393,72.299,59.054,70.243,56.706,70.323z M92.637,97.866c0.02,2.337,2.26,4.676,4.424,4.618c2.234-0.06,4.535-2.356,4.567-4.56
		c0.035-2.416-1.968-4.353-4.535-4.387C94.408,93.502,92.614,95.245,92.637,97.866z M98.433,44.326
		c-0.081-2.256-2.239-4.282-4.495-4.22c-2.278,0.063-4.248,2.201-4.158,4.513c0.09,2.34,2.189,4.334,4.448,4.226
		C96.473,48.737,98.512,46.546,98.433,44.326z"/>
	<linearGradient id="SVGID_2_" gradientUnits="userSpaceOnUse" x1="99.6875" y1="87.335" x2="99.6875" y2="54.6614">
		<stop  offset="0" style="stop-color:#B74196"/>
		<stop  offset="1" style="stop-color:#EF7465"/>
	</linearGradient>
	<path fill-rule="evenodd" clip-rule="evenodd" fill="url(#SVGID_2_)" d="M105.916,85.219c-4.723-2.763-9.334-5.522-14.02-8.145
		c-0.854-0.479-2.04-0.633-3.035-0.539c-2.236,0.21-3.756-0.805-4.832-2.54c-1.041-1.677-1.131-3.465,0.154-5.129
		c1.271-1.643,2.854-2.594,5.023-2.159c0.628,0.126,1.253,0.258,2.257,0.467c4.401-3.458,8.978-7.003,13.479-10.643
		c0.596-0.482,0.967-1.392,1.179-2.175c0.965-3.562,3.175-5.257,6.16-4.6c2.554,0.562,4.283,3.28,3.768,5.92
		c-0.586,3-2.993,4.437-6.615,3.956c-0.209-0.028-0.427-0.004-1.076-0.004c-4.896,3.836-10.452,7.419-15.568,12.308
		c1.187,0.924,1.864,1.565,2.643,2.037c3.22,1.951,6.46,3.865,9.711,5.761c1.915,1.115,3.62,2.36,6.236,1.924
		c2.404-0.401,4.441,1.937,4.682,4.402c0.25,2.56-1.552,4.997-4.026,5.446c-2.326,0.422-4.817-1.053-5.583-3.389
		C106.188,87.314,106.134,86.442,105.916,85.219z"/>
	<g>
		<path fill-rule="evenodd" clip-rule="evenodd" fill="#FFFFFF" d="M438.83,105.927c-3.741,0-6.646,0-9.501,0
			c-0.889-3.553-1.156-44.334-0.341-51.312c1.12-0.1,2.311-0.323,3.494-0.292c7.259,0.182,14.589-0.141,21.758,0.778
			c10.929,1.402,16.71,9.572,15.219,20.46c-0.691,5.047-3.676,8.747-7.714,11.647c-0.865,0.622-1.852,1.073-3.114,1.792
			c1.838,2.883,3.546,5.599,5.289,8.292c1.751,2.708,3.537,5.394,5.574,8.494c-4.256,0-8.024,0-12.074,0
			c-3.171-4.729-6.43-9.591-9.759-14.556c-2.829,0-5.56,0-8.831,0C438.83,96.096,438.83,100.804,438.83,105.927z M438.856,82.082
			c2.01,0,3.535,0.077,5.048-0.016c2.915-0.181,5.917-0.084,8.714-0.779c4.162-1.034,6.85-4.917,6.808-8.88
			c-0.044-4.012-2.357-6.931-6.727-8.33c-4.521-1.448-9.092-0.558-13.843-0.679C438.856,69.746,438.856,75.577,438.856,82.082z"/>
		<path fill-rule="evenodd" clip-rule="evenodd" fill="#FFFFFF" d="M320.372,53.155c3.636,1.413,6.921,2.69,10.447,4.061
			c0,5.3,0,10.535,0,15.873c3.405,1.144,6.652,0.462,9.833,0.582c3.08,0.116,6.168,0.024,9.749,0.024c0-6.806,0-13.387,0-20.567
			c3.72,1.406,6.81,2.574,10.158,3.839c0,16.205,0,32.386,0,48.899c-3.181,0-6.321,0-9.9,0c0-7.172,0-14.231,0-21.817
			c-3.595-0.062-6.781-0.137-9.969-0.166c-3.063-0.027-6.127-0.005-9.622-0.005c0,7.467,0,14.519,0,21.937
			c-3.743,0-7.056,0-10.406,0C319.841,102.659,319.545,61.561,320.372,53.155z"/>
		<path fill-rule="evenodd" clip-rule="evenodd" fill="#FFFFFF" d="M388.987,55.062c3.596,0,6.82,0,10.695,0
			c7.003,16.67,14.102,33.569,21.353,50.831c-3.745,0-7.199,0-10.974,0c-1.552-3.702-3.152-7.521-4.881-11.643
			c-7.071,0-14.277,0-21.718,0c-1.564,3.803-3.138,7.631-4.803,11.683c-3.468,0-6.967,0-10.984,0
			C374.847,88.816,381.912,71.95,388.987,55.062z M394.857,67.113c-0.353,0.001-0.704,0.002-1.057,0.003
			c-2.241,5.773-4.482,11.547-6.849,17.64c5.172,0.336,9.824,0.23,14.889,0.122C399.335,78.504,397.097,72.809,394.857,67.113z"/>
		<path fill-rule="evenodd" clip-rule="evenodd" fill="#FFFFFF" d="M306.498,90.67c2.179,2.075,4.378,4.17,6.498,6.19
			c-5.149,9.752-17.965,11.896-28.034,9.367c-10.098-2.539-18.103-12.12-18.85-24.357c-0.746-12.209,6.822-23.489,17.716-27.03
			c10.122-3.29,23.741-0.402,29.27,9.222c-2.208,2.024-4.457,4.086-7.079,6.49c-4.188-5.253-9.558-6.948-15.803-6.224
			c-3.741,0.433-6.736,2.25-9.111,5.039c-5.754,6.753-5.318,16.556,0.913,22.726C288.861,98.869,297.273,98.438,306.498,90.67z"/>
		<path fill-rule="evenodd" clip-rule="evenodd" fill="#FFFFFF" d="M472.685,63.537c0-2.671-0.02-4.508,0.012-6.346
			c0.011-0.595,0.156-1.188,0.304-2.245c12.367-0.328,24.637-0.133,37.165-0.136c0,2.989,0,5.533,0,8.461c-4.421,0-8.696,0-13.586,0
			c-0.022,4.929-0.051,9.506-0.062,14.083c-0.01,4.799-0.002,9.597-0.002,14.395c0,4.615,0,9.232,0,14.137
			c-3.362,0-6.386,0-10.024,0c-0.277-4.469-0.095-9.056-0.125-13.628c-0.034-4.798-0.009-9.596-0.009-14.395
			c0-4.617,0-9.234,0-14.326C481.754,63.537,477.499,63.537,472.685,63.537z"/>
		<path fill-rule="evenodd" clip-rule="evenodd" fill="#FFFFFF" d="M185.523,62.08c-0.499,1.383-0.903,2.503-1.352,3.741
			c-0.629-0.188-1.073-0.231-1.421-0.438c-4.433-2.638-9.179-4.297-14.271-5.231c-3.512-0.645-6.771-0.162-10.009,0.975
			c-3.274,1.149-5.636,3.219-5.979,6.921c-0.359,3.861,1.94,6.163,5.093,7.483c4.83,2.022,9.822,3.657,14.728,5.501
			c2.739,1.03,5.537,1.969,8.143,3.276c4.305,2.163,7.079,5.385,6.571,10.663c-0.505,5.266-3.109,9.093-7.884,11.109
			c-4.324,1.826-8.889,2.23-13.648,1.449c-6.79-1.112-13.116-3.313-19.436-6.643c0.501-1.465,0.929-2.715,1.343-3.923
			c5.102,1.633,9.864,3.42,14.769,4.635c3.1,0.77,6.406,0.781,9.629,0.932c1.184,0.055,2.435-0.356,3.585-0.754
			c4.034-1.393,5.839-3.683,6.074-7.29c0.261-3.979-2.241-6.051-5.392-7.239c-5.916-2.232-11.984-4.056-17.947-6.167
			c-1.873-0.664-3.671-1.599-5.403-2.587c-8.532-4.864-6.76-15.311-0.465-19.709c2.892-2.02,6.094-2.959,9.541-3.257
			C170.457,54.776,178.214,57.181,185.523,62.08z"/>
		<path fill-rule="evenodd" clip-rule="evenodd" fill="#FFFFFF" d="M235.31,94.198c0.941,1.067,1.851,2.094,2.729,3.088
			c-4.755,9.317-16.316,11.275-26.476,9.229c-10.54-2.122-18.358-12.236-19.032-23.469c-0.749-12.484,5.515-22.834,16.083-26.575
			c9.512-3.367,22.928-2.263,29.47,8.31c-0.897,0.962-1.827,1.958-3.103,3.323c-4.936-6.104-11.275-9.181-18.993-8.326
			c-5.365,0.594-10.041,2.92-13.477,7.338c-8.402,10.804-5.793,22.464,2.115,30.055C211.646,103.909,225.986,105.664,235.31,94.198z
			"/>
		<path fill-rule="evenodd" clip-rule="evenodd" fill="#FFFFFF" d="M254.644,105.921c-1.43,0-2.71,0-4.192,0
			c0-13.454,0-26.662,0-40.247c1.304-0.083,2.586-0.166,4.192-0.269C254.644,79.04,254.644,92.354,254.644,105.921z"/>
		<path fill-rule="evenodd" clip-rule="evenodd" fill="#FFFFFF" d="M250.475,58.962c0-2.292,0-3.936,0-5.827
			c1.381-0.064,2.554-0.119,3.576-0.166c1.079,1.223,1.13,2.139,0.486,7.701C253.12,60.074,251.814,59.524,250.475,58.962z"/>
	</g>
</g>
</svg>
