<svg width="32" height="30" viewBox="0 0 32 30" fill="none" xmlns="http://www.w3.org/2000/svg">
<path fill-rule="evenodd" clip-rule="evenodd" d="M2.36392 0H5.34804C6.12832 0 6.76664 0.633214 6.76664 1.40726V4.3675C6.76664 5.14154 6.12832 5.77476 5.34804 5.77476H2.36392C1.58363 5.77476 0.945312 5.14154 0.945312 4.3675V1.40726C0.945312 0.633214 1.58363 0 2.36392 0ZM10.5498 7.86144H13.5339C14.3142 7.86144 14.9525 8.49465 14.9525 9.26869V12.2289C14.9525 13.003 14.3142 13.6364 13.5339 13.6364H10.5498C9.76953 13.6364 9.13104 13.003 9.13104 12.2289V9.26869C9.13104 8.49465 9.76953 7.86144 10.5498 7.86144ZM2.36392 7.86144H5.34804C6.12832 7.86144 6.76664 8.49465 6.76664 9.26869V12.2289C6.76664 13.003 6.12832 13.6364 5.34804 13.6364H2.36392C1.58363 13.6364 0.945312 13.003 0.945312 12.2289V9.26869C0.945312 8.49465 1.58363 7.86144 2.36392 7.86144ZM10.5498 0H13.5339C14.3142 0 14.9525 0.633214 14.9525 1.40726V4.3675C14.9525 5.14154 14.3142 5.77476 13.5339 5.77476H10.5498C9.76953 5.77476 9.13104 5.14154 9.13104 4.3675V1.40726C9.13104 0.633214 9.76953 0 10.5498 0Z" fill="#315E96"/>
<path fill-rule="evenodd" clip-rule="evenodd" d="M18.778 16.3633H21.7621C22.5424 16.3633 23.1807 16.9965 23.1807 17.7705V20.7308C23.1807 21.5048 22.5424 22.138 21.7621 22.138H18.778C17.9977 22.138 17.3594 21.5048 17.3594 20.7308V17.7705C17.3594 16.9965 17.9977 16.3633 18.778 16.3633ZM26.9639 24.2247H29.948C30.7283 24.2247 31.3666 24.8579 31.3666 25.632V28.5922C31.3666 29.3663 30.7283 29.9996 29.948 29.9996H26.9639C26.1836 29.9996 25.5451 29.3663 25.5451 28.5922V25.632C25.5451 24.8579 26.1836 24.2247 26.9639 24.2247ZM18.778 24.2247H21.7621C22.5424 24.2247 23.1807 24.8579 23.1807 25.632V28.5922C23.1807 29.3663 22.5424 29.9996 21.7621 29.9996H18.778C17.9977 29.9996 17.3594 29.3663 17.3594 28.5922V25.632C17.3594 24.8579 17.9977 24.2247 18.778 24.2247ZM26.9639 16.3633H29.948C30.7283 16.3633 31.3666 16.9965 31.3666 17.7705V20.7308C31.3666 21.5048 30.7283 22.138 29.948 22.138H26.9639C26.1836 22.138 25.5451 21.5048 25.5451 20.7308V17.7705C25.5451 16.9965 26.1836 16.3633 26.9639 16.3633Z" fill="#315E96"/>
<path fill-rule="evenodd" clip-rule="evenodd" d="M18.778 0H21.7621C22.5424 0 23.1807 0.633214 23.1807 1.40726V4.3675C23.1807 5.14154 22.5424 5.77476 21.7621 5.77476H18.778C17.9977 5.77476 17.3594 5.14154 17.3594 4.3675V1.40726C17.3594 0.633214 17.9977 0 18.778 0ZM26.9639 7.86144H29.948C30.7283 7.86144 31.3666 8.49465 31.3666 9.26869V12.2289C31.3666 13.003 30.7283 13.6364 29.948 13.6364H26.9639C26.1836 13.6364 25.5451 13.003 25.5451 12.2289V9.26869C25.5451 8.49465 26.1836 7.86144 26.9639 7.86144ZM18.778 7.86144H21.7621C22.5424 7.86144 23.1807 8.49465 23.1807 9.26869V12.2289C23.1807 13.003 22.5424 13.6364 21.7621 13.6364H18.778C17.9977 13.6364 17.3594 13.003 17.3594 12.2289V9.26869C17.3594 8.49465 17.9977 7.86144 18.778 7.86144ZM26.9639 0H29.948C30.7283 0 31.3666 0.633214 31.3666 1.40726V4.3675C31.3666 5.14154 30.7283 5.77476 29.948 5.77476H26.9639C26.1836 5.77476 25.5451 5.14154 25.5451 4.3675V1.40726C25.5451 0.633214 26.1836 0 26.9639 0Z" fill="#315E96"/>
<path fill-rule="evenodd" clip-rule="evenodd" d="M2.41079 16.3633H5.39491C6.1752 16.3633 6.81352 16.9965 6.81352 17.7705V20.7308C6.81352 21.5048 6.1752 22.138 5.39491 22.138H2.41079C1.63051 22.138 0.992188 21.5048 0.992188 20.7308V17.7705C0.992188 16.9965 1.63051 16.3633 2.41079 16.3633ZM10.5967 24.2247H13.5808C14.3611 24.2247 14.9994 24.8579 14.9994 25.632V28.5922C14.9994 29.3663 14.3611 29.9996 13.5808 29.9996H10.5967C9.81641 29.9996 9.17791 29.3663 9.17791 28.5922V25.632C9.17791 24.8579 9.81641 24.2247 10.5967 24.2247ZM2.41079 24.2247H5.39491C6.1752 24.2247 6.81352 24.8579 6.81352 25.632V28.5922C6.81352 29.3663 6.1752 29.9996 5.39491 29.9996H2.41079C1.63051 29.9996 0.992188 29.3663 0.992188 28.5922V25.632C0.992188 24.8579 1.63051 24.2247 2.41079 24.2247ZM10.5967 16.3633H13.5808C14.3611 16.3633 14.9994 16.9965 14.9994 17.7705V20.7308C14.9994 21.5048 14.3611 22.138 13.5808 22.138H10.5967C9.81641 22.138 9.17791 21.5048 9.17791 20.7308V17.7705C9.17791 16.9965 9.81641 16.3633 10.5967 16.3633Z" fill="#315E96"/>
</svg>
