<svg width="32" height="30" viewBox="0 0 32 30" fill="none" xmlns="http://www.w3.org/2000/svg">
<path fill-rule="evenodd" clip-rule="evenodd" d="M4.06624 0H10.6313C12.3479 0 13.7522 1.39307 13.7522 3.09596V9.60851C13.7522 11.3114 12.3479 12.7045 10.6313 12.7045H4.06624C2.34962 12.7045 0.945312 11.3114 0.945312 9.60851V3.09596C0.945312 1.39307 2.34962 0 4.06624 0ZM22.0752 17.2952H28.6403C30.3569 17.2952 31.7612 18.6882 31.7612 20.3911V26.9037C31.7612 28.6066 30.3569 30 28.6403 30H22.0752C20.3586 30 18.9539 28.6066 18.9539 26.9037V20.3911C18.9539 18.6882 20.3586 17.2952 22.0752 17.2952ZM4.06624 17.2952H10.6313C12.3479 17.2952 13.7522 18.6882 13.7522 20.3911V26.9037C13.7522 28.6066 12.3479 30 10.6313 30H4.06624C2.34962 30 0.945312 28.6066 0.945312 26.9037V20.3911C0.945312 18.6882 2.34962 17.2952 4.06624 17.2952ZM22.0752 0H28.6403C30.3569 0 31.7612 1.39307 31.7612 3.09596V9.60851C31.7612 11.3114 30.3569 12.7045 28.6403 12.7045H22.0752C20.3586 12.7045 18.9539 11.3114 18.9539 9.60851V3.09596C18.9539 1.39307 20.3586 0 22.0752 0Z" fill="#315E96"/>
</svg>
