<svg width="34" height="30" viewBox="0 0 34 30" fill="none" xmlns="http://www.w3.org/2000/svg">
<path d="M3.80208 6.66667C5.64303 6.66667 7.13542 5.17428 7.13542 3.33333C7.13542 1.49238 5.64303 0 3.80208 0C1.96113 0 0.46875 1.49238 0.46875 3.33333C0.46875 5.17428 1.96113 6.66667 3.80208 6.66667Z" fill="#A0C2D5"/>
<path d="M13.8021 6.66667H30.4688C32.3021 6.66667 33.8021 5.16667 33.8021 3.33333C33.8021 1.5 32.3021 0 30.4688 0H13.8021C11.9687 0 10.4688 1.5 10.4688 3.33333C10.4688 5.16667 11.9687 6.66667 13.8021 6.66667Z" fill="#A0C2D5"/>
<path d="M3.80208 18.3337C5.64303 18.3337 7.13542 16.8413 7.13542 15.0003C7.13542 13.1594 5.64303 11.667 3.80208 11.667C1.96113 11.667 0.46875 13.1594 0.46875 15.0003C0.46875 16.8413 1.96113 18.3337 3.80208 18.3337Z" fill="#A0C2D5"/>
<path d="M30.4688 11.667H13.8021C11.9687 11.667 10.4688 13.167 10.4688 15.0003C10.4688 16.8337 11.9687 18.3337 13.8021 18.3337H30.4688C32.3021 18.3337 33.8021 16.8337 33.8021 15.0003C33.8021 13.167 32.3021 11.667 30.4688 11.667Z" fill="#A0C2D5"/>
<path d="M3.80208 30.0002C5.64303 30.0002 7.13542 28.5078 7.13542 26.6668C7.13542 24.8259 5.64303 23.3335 3.80208 23.3335C1.96113 23.3335 0.46875 24.8259 0.46875 26.6668C0.46875 28.5078 1.96113 30.0002 3.80208 30.0002Z" fill="#A0C2D5"/>
<path d="M30.4688 23.3335H13.8021C11.9687 23.3335 10.4688 24.8335 10.4688 26.6668C10.4688 28.5002 11.9687 30.0002 13.8021 30.0002H30.4688C32.3021 30.0002 33.8021 28.5002 33.8021 26.6668C33.8021 24.8335 32.3021 23.3335 30.4688 23.3335Z" fill="#A0C2D5"/>
</svg>
