<svg width="31" height="31" viewBox="0 0 31 31" fill="none" xmlns="http://www.w3.org/2000/svg">
<path d="M5.9008 17.2038C7.45219 18.7551 9.33601 19.5308 11.5523 19.5308C13.7685 19.5308 15.6524 18.7551 17.2038 17.2038C18.7551 15.6524 19.5308 13.7685 19.5308 11.5523C19.5308 9.33601 18.7551 7.45219 17.2038 5.9008C15.6524 4.34942 13.7685 3.57373 11.5523 3.57373C9.33601 3.57373 7.45219 4.34942 5.9008 5.9008C4.34942 7.45219 3.57373 9.33601 3.57373 11.5523C3.57373 13.7685 4.34942 15.6524 5.9008 17.2038ZM22.1903 19.5308L31 28.3405L28.3405 31L19.5308 22.1903V20.7775L19.0322 20.2788C16.9267 22.1072 14.4334 23.0214 11.5523 23.0214C8.33869 23.0214 5.59607 21.9133 3.3244 19.6971C1.10813 17.4808 0 14.7659 0 11.5523C0 8.33869 1.10813 5.62377 3.3244 3.40751C5.59607 1.13584 8.33869 0 11.5523 0C14.7659 0 17.4808 1.13584 19.6971 3.40751C21.9133 5.62377 23.0214 8.33869 23.0214 11.5523C23.0214 14.4334 22.1072 16.9267 20.2788 19.0322L20.7775 19.5308H22.1903Z" fill="#2A6397"/>
</svg>
